<?xml version="1.0" encoding="UTF-8" standalone="no"?>
<svg id="svg4241" xmlns:rdf="http://www.w3.org/1999/02/22-rdf-syntax-ns#" xmlns="http://www.w3.org/2000/svg" viewBox="0 0 50 50.000001" width="50" version="1.1" xmlns:cc="http://creativecommons.org/ns#" height="50" xmlns:dc="http://purl.org/dc/elements/1.1/">
 <metadata id="metadata4246">
  <rdf:RDF>
   <cc:Work rdf:about="">
    <dc:format>image/svg+xml</dc:format>
    <dc:type rdf:resource="http://purl.org/dc/dcmitype/StillImage"/>
    <dc:title/>
   </cc:Work>
  </rdf:RDF>
 </metadata>
 <g id="layer1" transform="translate(0 -1002.4)">
  <path id="path6611" d="m16.675 1048c-2.652-1.2534-5.1588-2.9561-7.2163-5.0541-1.625-1.6622-2.9696-3.669-3.8818-5.821-1.3446-3.1656-2.1115-6.6487-2.2162-10.095-0.077833-2.1656 0.35811-4.3413 0.97636-6.4122 0.68582-2.2568 1.6351-4.4764 2.9696-6.4021 1.4257-2.0439 3.2602-3.8142 5.2669-5.3041 1.7669-1.3075 3.8007-2.2703 5.8582-3.0744 1.7162-0.6892 3.5102-1.1892 5.3311-1.4662 1.902-0.3041 3.8277-0.3176 5.7399-0.223 1.9662 0.091 3.9595 0.2906 5.8751 0.7771 2.3885 0.6216 4.8413 1.5979 6.9122 2.679 1.348 0.6994 2.1791 1.1892 3.946 2.3109-1.1081 1.304-1.9662 2.402-2.6656 3.4696-0.75001 1.1757-1.0946 1.7939-1.9392 3.5507-1.2804-1.0169-2.0169-1.6892-3.1791-2.2838-2.652-1.3716-5.5034-2.6385-8.4866-2.8784-2.9021-0.2365-6.0034 0.186-8.6318 1.4392-2.5338 1.2162-4.8142 3.2061-6.2669 5.6082-1.5304 2.5101-2.2703 5.6216-2.1791 8.5676 0.12162 3.3885 1.1351 6.9528 3.1689 9.6724 1.7804 2.3885 4.5406 4.0777 7.3379 5.1081 2.402 0.8818 5.0811 0.8953 7.6386 0.7365 2.0338-0.1184 3.3683-0.4594 5.9663-1.3176 0.04054-1.9662 0.1454-2.7736 0.13189-4.6993-0.01343-1.6622-0.07783-3.1555-0.10486-4.7771-2.098 0-4.6048 0.091-6.7298 0.1588-0.89866 0.027-1.4662 0.051-2.6791 0.1048 0.20946-1.3852 0.4223-2.9021 0.4223-4.2501 0-1.3581-0.21297-3.0203-0.47636-4.25 1.071 0.1856 2.5473 0.3446 3.4831 0.4223 2.5743 0.2129 6.9156 0.2905 9.5305 0.3041 1.848 0.013 4.2737-0.091 6.071-0.25-0.1856 1.6892-0.39865 3.5372-0.43581 4.8581-0.14531 4.6048-0.24 7.1115-0.02707 11.453 0.07775 1.6115 0.20942 2.8919 0.38176 4.2906-1.2534 0.8817-2.5203 1.7162-4.1419 2.5608-1.3885 0.7095-4.4629 1.9392-6.8379 2.3987-3.4426 0.6621-7.0203 0.8209-10.503 0.4223-2.8919-0.3412-5.7805-1.0946-8.4089-2.3345z"/>
 </g>
</svg>
