<?xml version="1.0" encoding="UTF-8" standalone="no"?>
<!-- Created with Inkscape (http://www.inkscape.org/) -->
<svg id="svg4241" xmlns:rdf="http://www.w3.org/1999/02/22-rdf-syntax-ns#" xmlns="http://www.w3.org/2000/svg" height="60" width="400" version="1.1" xmlns:cc="http://creativecommons.org/ns#" xmlns:dc="http://purl.org/dc/elements/1.1/" viewBox="0 0 400 60.000001">
 <metadata id="metadata4246">
  <rdf:RDF>
   <cc:Work rdf:about="">
    <dc:format>image/svg+xml</dc:format>
    <dc:type rdf:resource="http://purl.org/dc/dcmitype/StillImage"/>
    <dc:title/>
   </cc:Work>
  </rdf:RDF>
 </metadata>
 <g id="layer1" transform="translate(0 -992.36)">
  <g id="g4210" transform="matrix(2.1656 0 0 2.1656 -174.77 750.52)">
   <path id="path6609" d="m80.7 135.47h184.56v3.9063h-184.56v-3.9063z" fill="#ff1f00"/>
   <path id="path6611" d="m165.53 128.33c-0.67549 1.6567-0.93757 2.2667-1.5054 3.8938-0.17004 0.56004-0.37753 1.145-0.62089 1.9687-0.36036-0.1716-0.63336-0.32916-0.95628-0.4524-0.69577-0.26053-1.6583-0.65677-2.3775-0.88921-0.35256-0.11544-0.6942-0.20748-1.1934-0.31668 0.47425-0.95629 1.053-2.0421 1.4368-2.9063 2.3587-5.29 4.5162-10.463 6.0762-15.04 0.26832-0.78 0.57877-1.6396 0.87673-2.4492 0.76284 0.14664 1.1653 0.2184 2.1512 0.2184 0.99373 0 1.585-0.0718 2.2729-0.22464 0.20124 0.59124 0.585 1.5116 0.90792 2.365 1.39 3.6676 4.2542 10.7 6.0638 14.971 0.45708 1.067 0.90169 1.9874 1.4024 3.1138-0.40248 0.10458-0.60996 0.1404-0.99997 0.27456-0.70668 0.23244-1.4929 0.48828-2.1325 0.77376-0.40248 0.17629-0.71916 0.31669-1.2558 0.56161-0.17628-0.58501-0.35256-1.2496-0.56628-1.8346-0.43368-1.2074-1.2074-3.2245-1.5116-4.0467-1.3042-0.0483-2.6442-0.10296-4.095-0.0967-1.4508 0.005-2.833 0.0718-3.9733 0.11544zm6.8734-3.2479c-0.663-1.9874-1.2308-3.73-2.053-5.9967-0.2496-0.6942-0.49921-1.273-0.74413-1.9313-0.2496 0.65832-0.48672 1.2246-0.7488 1.9063-0.84709 2.2495-1.4258 3.9188-2.1513 6.0154 0.86581 0.0609 1.8471 0.0905 2.8096 0.0796 0.99373-0.0125 1.9126-0.0374 2.8876-0.0734zm-49.262 0.73632c-2.223-2.8517-3.0763-3.7893-4.003-4.875-0.68329-0.80964-0.95005-1.1092-1.5304-1.7846-0.0718 3.9125 0.0125 8.0621 0.19032 12.218 0.0297 0.85333 0.0655 1.4009 0.14508 2.1746-0.67548-0.0718-1.5226-0.1638-2.2667-0.15756-0.74881 0.006-1.4258 0.10296-2.3587 0.18876 0.0374-0.59124 0.18408-2.0966 0.2262-2.7113 0.34165-4.9967 0.34165-9.775 0.28705-16.283-0.006-1.2792-0.0437-1.6942-0.0857-2.1512 0.68172 0.0671 1.2184 0.15912 2.0108 0.15288 0.74256-0.006 1.4134-0.0796 1.975-0.16536 0.43213 0.62868 0.52261 0.74412 0.88297 1.2433 1.2979 1.8346 3.3509 4.808 4.3868 6.1558 1.0374 1.34 2.822 3.5521 4.51 5.6426 0.71916 0.88921 0.99996 1.1934 1.5413 1.8517 0.0796-4.8563 0.0921-8.6705-0.20593-12.48-0.0734-0.95628-0.16536-1.8096-0.24492-2.4976 0.83461 0.15132 1.5787 0.26208 2.3229 0.26208 0.74256-0.006 1.4617-0.0796 2.2168-0.18252-0.078 0.86424-0.1326 1.2854-0.18876 2.6801-0.23712 5.1309-0.27924 10.635-0.14508 16.003 0.0171 0.79248 0.0483 1.1154 0.0905 1.9921-0.31668 0.0437-0.66924 0.0734-0.98125 0.11082-0.468 0.0547-1.2433 0.18877-1.7675 0.35881-0.34632 0.11544-0.57876 0.16536-0.975 0.32916-0.32761-0.4758-0.60217-0.80965-1.0655-1.4555-1.8829-2.6021-2.7051-3.7237-4.9671-6.6191zm19.433 6.6488c-1.2308-0.57877-2.3884-1.365-3.3322-2.3338-0.75661-0.76752-1.3712-1.6942-1.7924-2.6879-0.62713-1.4617-0.97501-3.0701-1.0296-4.6613-0.0312-0.99997 0.17004-2.0046 0.45708-2.9609 0.31669-1.0421 0.74881-2.067 1.3712-2.9562 0.65833-0.94381 1.5054-1.7612 2.4305-2.4492 0.81744-0.60372 1.755-1.0483 2.7066-1.4196 0.79249-0.31824 1.6209-0.54912 2.4617-0.67704 0.87205-0.1404 1.7675-0.14664 2.6442-0.10296 0.91416 0.0422 1.8346 0.13416 2.7175 0.3588 1.1045 0.28704 2.2308 0.73788 3.1871 1.2371 0.62244 0.32292 1.0124 0.54912 1.8283 1.067-0.51169 0.60217-0.91417 1.1092-1.2371 1.6021-0.34632 0.54289-0.4992 0.82837-0.89545 1.6396-0.585-0.46957-0.92664-0.78001-1.4617-1.0546-1.2262-0.63337-2.5475-1.2184-3.9187-1.3291-1.3463-0.1092-2.7721 0.0859-3.9858 0.66456-1.17 0.56161-2.2292 1.4804-2.9001 2.5896-0.70044 1.1591-1.0421 2.5959-0.99996 3.9562 0.0547 1.5647 0.52416 3.2105 1.4633 4.4663 0.81588 1.1029 2.0951 1.8829 3.3883 2.3587 1.1029 0.40716 2.3462 0.4134 3.5209 0.34008 0.93913-0.0547 1.56-0.21216 2.755-0.6084 0.025-0.90793 0.067-1.2808 0.067-2.17-0.006-0.76752-0.0359-1.457-0.0483-2.2058-0.96877 0-2.1278 0.0421-3.1075 0.0733-0.41496 0.0125-0.67704 0.0235-1.2433 0.0484 0.0967-0.6396 0.20124-1.34 0.20124-1.9687 0-0.62089-0.0983-1.3946-0.21996-1.9562 0.49296 0.0857 1.17 0.15912 1.6084 0.195 1.1887 0.0983 3.1933 0.13416 4.4008 0.1404 0.84709 0.006 1.9734-0.0421 2.8018-0.11544-0.0842 0.78-0.18876 1.6333-0.20592 2.2433-0.0609 2.1263-0.10459 3.2838-0.006 5.2884 0.0359 0.74412 0.0905 1.3354 0.17628 1.9812-0.57877 0.40716-1.1638 0.79248-1.9188 1.1825-0.63493 0.3276-2.0608 0.89544-3.1512 1.1076-1.5912 0.30576-3.248 0.37909-4.8501 0.19032-1.3354-0.15288-2.6692-0.50076-3.8829-1.0733zm-37.975 0.91416c0.078-0.5538 0.10296-0.73164 0.13884-1.262 0.3354-4.9967 0.14664-14.296 0.092-17.372-0.0187-1.0858-0.092-1.2979-0.18253-2.2246 0.96253 0.0734 1.8767 0.17628 2.443 0.17628 0.57252-0.006 1.6084-0.0609 2.4508-0.18876-0.092 0.73164-0.0982 1.3104-0.19033 2.4196-0.40092 4.9546-0.32292 12.365-0.0233 17.19 0.042 0.67705 0.0734 0.79873 0.13416 1.3166-0.82837-0.0359-1.652-0.12168-2.3338-0.12168-0.68328 0.006-1.7862 0.025-2.5288 0.0671zm-17.283-0.91416c-1.2246-0.57877-2.3821-1.365-3.3322-2.3338-0.75036-0.76752-1.3712-1.6942-1.7925-2.6879-0.62088-1.4617-0.97501-3.0701-1.0234-4.6613-0.03594-0.99997 0.16536-2.0046 0.45084-2.9609 0.31668-1.0421 0.75504-2.067 1.3712-2.9562 0.65832-0.94381 1.5054-1.7612 2.4321-2.4492 0.81588-0.60372 1.755-1.0483 2.7051-1.4196 0.79248-0.31824 1.6208-0.54912 2.4617-0.67704 0.87829-0.1404 1.7675-0.14664 2.6505-0.10296 0.90793 0.0422 1.8283 0.13416 2.7129 0.3588 1.1029 0.28704 2.2355 0.73788 3.1918 1.2371 0.62244 0.32292 1.0062 0.54912 1.8221 1.067-0.51168 0.60217-0.90792 1.1092-1.2308 1.6021-0.34632 0.54289-0.50544 0.82837-0.89545 1.6396-0.59125-0.46957-0.93133-0.78001-1.468-1.0546-1.2246-0.63337-2.5413-1.2184-3.9187-1.3291-1.34-0.1092-2.7721 0.0859-3.9858 0.66456-1.17 0.56161-2.223 1.4804-2.8938 2.5896-0.70668 1.1591-1.0483 2.5959-1.0062 3.9562 0.05616 1.5647 0.52416 3.2105 1.4633 4.4663 0.82213 1.1029 2.0967 1.8829 3.3883 2.3587 1.1092 0.40716 2.3463 0.4134 3.5272 0.34008 0.93913-0.0547 1.5553-0.21216 2.755-0.6084 0.01872-0.90793 0.06714-1.2808 0.0609-2.17-0.0062-0.76752-0.03594-1.457-0.04842-2.2058-0.96877 0-2.1263 0.0421-3.1075 0.0733-0.41496 0.0125-0.67704 0.0235-1.2371 0.0484 0.09672-0.6396 0.195-1.34 0.195-1.9625 0-0.62713-0.09834-1.3946-0.21996-1.9625 0.49452 0.0857 1.1762 0.15912 1.6084 0.195 1.1887 0.0983 3.1933 0.13416 4.4008 0.1404 0.85333 0.006 1.9734-0.0421 2.8033-0.11544-0.0857 0.78-0.18408 1.6333-0.20124 2.2433-0.0671 2.1263-0.11082 3.2838-0.0125 5.2884 0.0359 0.74412 0.0967 1.3354 0.17628 1.9812-0.57876 0.40716-1.1638 0.79248-1.9126 1.1825-0.64116 0.3276-2.0608 0.89544-3.1575 1.1076-1.5896 0.30576-3.2417 0.37909-4.8501 0.195-1.3354-0.15756-2.6692-0.50544-3.8829-1.078z"/>
   <path id="path6613" d="m193.65 134.14h-0.98749l-2.9562-8.5192-2.8642 8.5192h-0.98748l-4.4351-13.692h2.4976l2.535 8.1542 2.7425-8.1542h1.0483l2.7487 8.1542 2.5288-8.1542h2.4976l-4.368 13.692z"/>
   <path id="path6615" d="m199.51 133.96v-13.51h2.4009v13.51h-2.4009z"/>
   <path id="path6617" d="m212.36 133.96-3.6083-5.5817c-0.36504-0.006-0.87048-0.025-1.5226-0.0609v5.6426h-2.4929v-13.51c0.1404 0 0.65832-0.025 1.56-0.0734 0.90168-0.0422 1.6333-0.0671 2.1871-0.0671 3.4305 0 5.1434 1.3291 5.1434 3.9858 0 0.79872-0.23089 1.5226-0.70669 2.1809-0.4758 0.65833-1.0733 1.1279-1.7909 1.3962l3.9967 6.0872h-2.7659zm-5.1309-11.426v3.7534c0.44461 0.0374 0.78001 0.0547 1.0171 0.0547 0.99997 0 1.73-0.1404 2.1934-0.42588 0.46957-0.2808 0.70045-0.83461 0.70045-1.652 0-0.66457-0.2496-1.1263-0.74881-1.3884-0.4992-0.26832-1.2792-0.39624-2.3525-0.39624-0.25584 0-0.5304 0.0172-0.80965 0.0547z"/>
   <path id="path6619" d="m218.69 122.57v3.1637h4.4616v2.0405h-4.4616v4.0467h6.1246v2.1325h-8.5255v-13.51h8.6237v2.1263h-6.2229z"/>
   <path id="path6621" d="m227.02 133.96v-13.51h2.4009v11.377h6.1059v2.1325h-8.5067z"/>
   <path id="path6623" d="m239.86 122.57v3.1637h4.4601v2.0405h-4.4601v4.0467h6.123v2.1325h-8.5254v-13.51h8.6237v2.1263h-6.2213z"/>
   <path id="path6625" d="m247.55 133.21 0.88453-2.145c0.95004 0.663 1.8829 0.99216 2.7971 0.99216 1.4071 0 2.1138-0.49296 2.1138-1.4742 0-0.46333-0.17004-0.90169-0.4992-1.3166-0.33541-0.41965-1.0187-0.88921-2.0545-1.4071-1.0358-0.52417-1.73-0.95005-2.0904-1.2854-0.3588-0.3354-0.6396-0.73165-0.83461-1.195-0.18876-0.45708-0.28548-0.96876-0.28548-1.5288 0-1.0421 0.37753-1.9141 1.145-2.6021 0.76752-0.68953 1.7488-1.0296 2.95-1.0296 1.56 0 2.7051 0.29172 3.4367 0.87672l-0.7254 2.0655c-0.84709-0.60217-1.73-0.90793-2.6692-0.90793-0.5538 0-0.98125 0.14664-1.2854 0.43836-0.3042 0.29329-0.45708 0.67081-0.45708 1.1404 0 0.77377 0.85956 1.5787 2.5709 2.4196 0.90793 0.43836 1.56 0.84708 1.9563 1.2184 0.40248 0.37128 0.70668 0.80496 0.91416 1.3042 0.20748 0.49297 0.31668 1.0421 0.31668 1.6505 0 1.0982-0.43212 1.9999-1.2979 2.7066-0.86425 0.70669-2.0233 1.0608-3.4726 1.0608-1.262 0-2.3946-0.32916-3.4133-0.98125z"/>
   <path id="path6627" d="m257.22 133.21 0.88921-2.145c0.94381 0.663 1.8767 0.99216 2.7909 0.99216 1.4071 0 2.1138-0.49296 2.1138-1.4742 0-0.46333-0.1638-0.90169-0.4992-1.3166-0.32916-0.41965-1.0171-0.88921-2.053-1.4071-1.0358-0.52417-1.7316-0.95005-2.0904-1.2854-0.36036-0.3354-0.6396-0.73165-0.82836-1.195-0.195-0.45708-0.29329-0.96876-0.29329-1.5288 0-1.0421 0.38377-1.9141 1.145-2.6021 0.76909-0.68953 1.7503-1.0296 2.95-1.0296 1.56 0 2.7051 0.29172 3.4367 0.87672l-0.7254 2.0655c-0.84085-0.60217-1.73-0.90793-2.6692-0.90793-0.54756 0-0.98125 0.14664-1.2854 0.43836-0.3042 0.29329-0.45708 0.67081-0.45708 1.1404 0 0.77377 0.85957 1.5787 2.5787 2.4196 0.90168 0.43836 1.5538 0.84708 1.9547 1.2184 0.39624 0.37128 0.702 0.80496 0.90792 1.3042 0.21373 0.49297 0.31825 1.0421 0.31825 1.6505 0 1.0982-0.43369 1.9999-1.2979 2.7066-0.86581 0.70669-2.0233 1.0608-3.4741 1.0608-1.262 0-2.3946-0.32916-3.4118-0.98125z"/>
  </g>
 </g>
</svg>
