<?xml version="1.0" encoding="UTF-8" standalone="no"?>
<svg
   xmlns:dc="http://purl.org/dc/elements/1.1/"
   xmlns:cc="http://creativecommons.org/ns#"
   xmlns:rdf="http://www.w3.org/1999/02/22-rdf-syntax-ns#"
   xmlns:svg="http://www.w3.org/2000/svg"
   xmlns="http://www.w3.org/2000/svg"
   xmlns:xlink="http://www.w3.org/1999/xlink"
   version="1.1"
   id="svg2"
   viewBox="0 0 800.00001 600.00001"
   height="600"
   width="800">
  <defs
     id="defs4">
    <linearGradient
       id="linearGradient3435"
       gradientUnits="userSpaceOnUse"
       x1="12.2744"
       y1="32.4165"
       x2="35.3912"
       y2="14.2033">
      <stop
         offset="0.0000000"
         style="stop-color:#ffffc8;stop-opacity:1.0000000;"
         id="stop3437" />
      <stop
         offset="1.0000000"
         style="stop-color:#9a91ef;stop-opacity:0.0000000;"
         id="stop3439" />
    </linearGradient>
    <linearGradient
       y2="14.2033"
       x2="35.3912"
       y1="32.4165"
       x1="12.2744"
       gradientUnits="userSpaceOnUse"
       id="linearGradient3421">
      <stop
         id="stop3423"
         style="stop-color:#ffffff;stop-opacity:1.0000000;"
         offset="0.0000000" />
      <stop
         id="stop3427"
         style="stop-color:#b8c04c;stop-opacity:0.0000000;"
         offset="1.0000000" />
    </linearGradient>
    <linearGradient
       id="linearGradient3406"
       gradientUnits="userSpaceOnUse"
       x1="12.2744"
       y1="32.4165"
       x2="35.3912"
       y2="14.2033">
      <stop
         offset="0.0000000"
         style="stop-color:#b307ff;stop-opacity:0.82178217;"
         id="stop3408" />
      <stop
         offset="1.0000000"
         style="stop-color:#f0ff8b;stop-opacity:0.64356434;"
         id="stop3410" />
      <stop
         offset="1.0000000"
         style="stop-color:#ffffff;stop-opacity:0.0000000;"
         id="stop3412" />
    </linearGradient>
    <linearGradient
       y2="14.2033"
       x2="35.3912"
       y1="32.4165"
       x1="12.2744"
       gradientUnits="userSpaceOnUse"
       id="linearGradient3394">
      <stop
         id="stop3396"
         style="stop-color:#fff307;stop-opacity:1.0000000;"
         offset="0.0000000" />
      <stop
         id="stop3398"
         style="stop-color:#166eff;stop-opacity:1.0000000;"
         offset="0.50000000" />
      <stop
         id="stop3400"
         style="stop-color:#ffffff;stop-opacity:0.0000000;"
         offset="1.0000000" />
    </linearGradient>
    <linearGradient
       id="linearGradient6036">
      <stop
         style="stop-color:#ffffff;stop-opacity:1;"
         offset="0"
         id="stop6038" />
      <stop
         style="stop-color:#ffffff;stop-opacity:0;"
         offset="1"
         id="stop6040" />
    </linearGradient>
    <linearGradient
       id="aigrd2"
       gradientUnits="userSpaceOnUse"
       x1="12.2744"
       y1="32.4165"
       x2="35.3912"
       y2="14.2033">
      <stop
         offset="0"
         style="stop-color:#FBFBFB"
         id="stop3043" />
      <stop
         offset="0.5"
         style="stop-color:#B6B6B6"
         id="stop3045" />
      <stop
         offset="1"
         style="stop-color:#E4E4E4"
         id="stop3047" />
    </linearGradient>
    <linearGradient
       id="aigrd1"
       gradientUnits="userSpaceOnUse"
       x1="14.9966"
       y1="11.1885"
       x2="32.511"
       y2="34.3075">
      <stop
         offset="0"
         style="stop-color:#EBEBEB"
         id="stop3034" />
      <stop
         offset="0.5"
         style="stop-color:#FFFFFF"
         id="stop3036" />
      <stop
         offset="1"
         style="stop-color:#EBEBEB"
         id="stop3038" />
    </linearGradient>
    <linearGradient
       xlink:href="#aigrd1"
       id="linearGradient3912"
       gradientUnits="userSpaceOnUse"
       x1="14.9966"
       y1="11.1885"
       x2="32.511"
       y2="34.3075"
       gradientTransform="matrix(1.190476,0,0,1.190476,-4.224424,-2.5)" />
    <linearGradient
       xlink:href="#linearGradient6036"
       id="linearGradient4222"
       x1="21.125000"
       y1="14.625000"
       x2="29.000000"
       y2="28.000000"
       gradientUnits="userSpaceOnUse"
       gradientTransform="matrix(1.25,0,0,1.25,-5.652995,-2.604165)" />
    <linearGradient
       xlink:href="#aigrd2"
       id="linearGradient4242"
       gradientUnits="userSpaceOnUse"
       gradientTransform="matrix(1.190476,0,0,1.190476,-4.224424,-2.500001)"
       x1="12.2744"
       y1="32.4165"
       x2="35.3912"
       y2="14.2033" />
    <linearGradient
       xlink:href="#linearGradient6036"
       id="linearGradient6034"
       x1="28.702885"
       y1="31.494707"
       x2="17.742729"
       y2="18.366575"
       gradientUnits="userSpaceOnUse" />
    <linearGradient
       xlink:href="#linearGradient6036"
       id="linearGradient6042"
       x1="10.501720"
       y1="3.6100161"
       x2="48.798885"
       y2="54.698483"
       gradientUnits="userSpaceOnUse" />
    <radialGradient
       gradientTransform="matrix(0.848684,0.95802,-0.782119,0.692834,18.69147,-20.52578)"
       gradientUnits="userSpaceOnUse"
       r="21.333334"
       fy="27.569166"
       fx="37.751469"
       cy="27.569166"
       cx="37.751469"
       id="radialGradient3392"
       xlink:href="#linearGradient3394" />
    <radialGradient
       r="21.333334"
       fy="48.238270"
       fx="53.556889"
       cy="48.238270"
       cx="53.556889"
       gradientTransform="matrix(0.15845,-0.158988,0.432907,0.431441,-2.723645,15.00107)"
       gradientUnits="userSpaceOnUse"
       id="radialGradient3429"
       xlink:href="#linearGradient3421" />
    <radialGradient
       r="21.333334"
       fy="33.377594"
       fx="16.885271"
       cy="33.377594"
       cx="16.885271"
       gradientTransform="matrix(0.00518427,-0.12286,0.544548,0.02297824,0.957234,26.30756)"
       gradientUnits="userSpaceOnUse"
       id="radialGradient3433"
       xlink:href="#linearGradient3435" />
    <radialGradient
       r="21.333334"
       fy="21.618015"
       fx="35.511295"
       cy="21.618015"
       cx="35.511295"
       gradientTransform="matrix(0.105916,-0.0191424,0.104789,0.579807,17.13693,7.115158)"
       gradientUnits="userSpaceOnUse"
       id="radialGradient3443"
       xlink:href="#linearGradient3435" />
    <radialGradient
       gradientTransform="matrix(-0.0504822,0.01387847,-0.12844,-0.467196,35.41257,39.44172)"
       r="21.333334"
       fy="23.914305"
       fx="133.84108"
       cy="23.914305"
       cx="133.84108"
       gradientUnits="userSpaceOnUse"
       id="radialGradient3447"
       xlink:href="#linearGradient3435" />
    <radialGradient
       r="21.333334"
       fy="38.807304"
       fx="26.137741"
       cy="38.807304"
       cx="26.137741"
       gradientTransform="matrix(0.769501,-1.2425,0.6703,0.415141,-21.77857,41.36563)"
       gradientUnits="userSpaceOnUse"
       id="radialGradient3449"
       xlink:href="#linearGradient3406" />
    <linearGradient
       y2="28.000000"
       x2="29.000000"
       y1="14.625000"
       x1="21.125000"
       gradientTransform="matrix(1.25,0,0,1.25,-5.652995,-2.604165)"
       gradientUnits="userSpaceOnUse"
       id="linearGradient4429"
       xlink:href="#linearGradient6036" />
    <linearGradient
       y2="34.3075"
       x2="32.511"
       y1="11.1885"
       x1="14.9966"
       gradientTransform="matrix(1.190476,0,0,1.190476,-4.224424,-2.5)"
       gradientUnits="userSpaceOnUse"
       id="linearGradient4489"
       xlink:href="#aigrd1" />
    <linearGradient
       y2="14.2033"
       x2="35.3912"
       y1="32.4165"
       x1="12.2744"
       gradientTransform="matrix(1.190476,0,0,1.190476,-4.224424,-2.500001)"
       gradientUnits="userSpaceOnUse"
       id="linearGradient4491"
       xlink:href="#aigrd2" />
    <linearGradient
       y2="28.000000"
       x2="29.000000"
       y1="14.625000"
       x1="21.125000"
       gradientTransform="matrix(1.25,0,0,1.25,-5.652995,-2.604165)"
       gradientUnits="userSpaceOnUse"
       id="linearGradient4493"
       xlink:href="#linearGradient6036" />
    <linearGradient
       y2="28.000000"
       x2="29.000000"
       y1="14.625000"
       x1="21.125000"
       gradientTransform="matrix(1.25,0,0,1.25,-5.652995,-2.604165)"
       gradientUnits="userSpaceOnUse"
       id="linearGradient4495"
       xlink:href="#linearGradient6036" />
    <linearGradient
       y2="54.698483"
       x2="48.798885"
       y1="3.6100161"
       x1="10.501720"
       gradientUnits="userSpaceOnUse"
       id="linearGradient4497"
       xlink:href="#linearGradient6036" />
    <linearGradient
       y2="18.366575"
       x2="17.742729"
       y1="31.494707"
       x1="28.702885"
       gradientUnits="userSpaceOnUse"
       id="linearGradient4499"
       xlink:href="#linearGradient6036" />
    <radialGradient
       r="21.333334"
       fy="27.569166"
       fx="37.751469"
       cy="27.569166"
       cx="37.751469"
       gradientTransform="matrix(0.848684,0.95802,-0.782119,0.692834,18.69147,-20.52578)"
       gradientUnits="userSpaceOnUse"
       id="radialGradient4501"
       xlink:href="#linearGradient3394" />
    <radialGradient
       r="21.333334"
       fy="38.807304"
       fx="26.137741"
       cy="38.807304"
       cx="26.137741"
       gradientTransform="matrix(0.769501,-1.2425,0.6703,0.415141,-21.77857,41.36563)"
       gradientUnits="userSpaceOnUse"
       id="radialGradient4503"
       xlink:href="#linearGradient3406" />
    <radialGradient
       r="21.333334"
       fy="48.238270"
       fx="53.556889"
       cy="48.238270"
       cx="53.556889"
       gradientTransform="matrix(0.15845,-0.158988,0.432907,0.431441,-2.723645,15.00107)"
       gradientUnits="userSpaceOnUse"
       id="radialGradient4505"
       xlink:href="#linearGradient3421" />
    <radialGradient
       r="21.333334"
       fy="33.377594"
       fx="16.885271"
       cy="33.377594"
       cx="16.885271"
       gradientTransform="matrix(0.00518427,-0.12286,0.544548,0.02297824,0.957234,26.30756)"
       gradientUnits="userSpaceOnUse"
       id="radialGradient4507"
       xlink:href="#linearGradient3435" />
    <radialGradient
       r="21.333334"
       fy="21.618015"
       fx="35.511295"
       cy="21.618015"
       cx="35.511295"
       gradientTransform="matrix(0.105916,-0.0191424,0.104789,0.579807,17.13693,7.115158)"
       gradientUnits="userSpaceOnUse"
       id="radialGradient4509"
       xlink:href="#linearGradient3435" />
    <radialGradient
       r="21.333334"
       fy="23.914305"
       fx="133.84108"
       cy="23.914305"
       cx="133.84108"
       gradientTransform="matrix(-0.0504822,0.01387847,-0.12844,-0.467196,35.41257,39.44172)"
       gradientUnits="userSpaceOnUse"
       id="radialGradient4511"
       xlink:href="#linearGradient3435" />
  </defs>
  <metadata
     id="metadata7">
    <rdf:RDF>
      <cc:Work
         rdf:about="">
        <dc:format>image/svg+xml</dc:format>
        <dc:type
           rdf:resource="http://purl.org/dc/dcmitype/StillImage" />
        <dc:title></dc:title>
      </cc:Work>
    </rdf:RDF>
  </metadata>
  <g
     transform="translate(0,-452.36216)"
     id="layer1">
    <g
       id="g4144"
       transform="matrix(1.25,0,0,-1.25,48.244825,981.52693)">
      <g
         id="g4146"
         transform="scale(0.1,0.1)">
        <path
           d="m 3878.77,2051.16 -2204.1,-693.03 c 0,0 77.03,-240.59 -48.19,-452.368 l 2223.44,721.878 c 67.5,125.11 115.57,279.14 28.85,423.52"
           style="fill:#f46b78;fill-opacity:1;fill-rule:nonzero;stroke:none"
           id="path4148" />
        <path
           d="m 1626.48,905.762 c 125.22,211.778 48.19,452.368 48.19,452.368 L 57.6758,2089.56 0,1685.37 1626.48,905.762"
           style="fill:#deddde;fill-opacity:1;fill-rule:nonzero;stroke:none"
           id="path4150" />
        <path
           d="M 3878.77,2051.16 1674.67,1358.13 57.6758,2089.56 2194.39,2609.38 3878.77,2051.16"
           style="fill:#f46b78;fill-opacity:1;fill-rule:nonzero;stroke:none"
           id="path4152" />
        <path
           d="m 1674.67,1358.13 -683.982,309.39 c 10.082,145.43 68.062,248.89 68.062,248.89 l 0,0 2479.18,247.7 340.84,-112.95 -2204.1,-693.03 M 882.18,1716.6 57.6758,2089.56 627.52,2228.19 882.18,1716.6"
           style="fill:#b44e56;fill-opacity:1;fill-rule:nonzero;stroke:none"
           id="path4154" />
        <path
           d="M 37.4922,1967.76 1534.58,1291.89 c 4.81,-2.17 10.48,-0.03 12.65,4.78 2.17,4.82 0.03,10.48 -4.78,12.65 L 45.3594,1985.19 c -4.8125,2.17 -10.4766,0.03 -12.6485,-4.78 -2.1718,-4.82 -0.0312,-10.48 4.7813,-12.65"
           style="fill:#918f90;fill-opacity:1;fill-rule:nonzero;stroke:none"
           id="path4156" />
        <path
           d="M 25.1289,1880.14 1522.12,1204.28 c 4.81,-2.18 10.48,-0.04 12.65,4.78 2.17,4.81 0.03,10.47 -4.78,12.64 L 32.9961,1897.57 c -4.8125,2.17 -10.4766,0.03 -12.6484,-4.78 -2.1719,-4.81 -0.0313,-10.48 4.7812,-12.65"
           style="fill:#918f90;fill-opacity:1;fill-rule:nonzero;stroke:none"
           id="path4158" />
        <path
           d="M 11.457,1784.45 1508.57,1108.59 c 4.81,-2.17 10.47,-0.03 12.64,4.78 2.18,4.81 0.04,10.48 -4.78,12.65 L 19.3242,1801.88 c -4.8125,2.17 -10.47654,0.03 -12.64842,-4.78 -2.17187,-4.81 -0.03125,-10.48 4.78122,-12.65"
           style="fill:#918f90;fill-opacity:1;fill-rule:nonzero;stroke:none"
           id="path4160" />
        <path
           d="m 495.762,2936.63 c -81.973,-96.21 -79.336,-188.09 -81.973,-279.08 L 1018.91,1441.94 c -85.16,251.42 39.84,474.47 39.84,474.47 L 495.762,2936.63"
           style="fill:#80d6f7;fill-opacity:1;fill-rule:nonzero;stroke:none"
           id="path4162" />
        <path
           d="m 1018.91,1441.94 -525.566,1055.79 271.902,-49.45 293.504,-531.87 c 0,0 -57.98,-103.46 -68.062,-248.89 -0.965,-13.88 -1.493,-28.15 -1.489,-42.74 0.012,-57 8.086,-119.01 29.711,-182.84 M 415.156,2705.08 c 2.492,64.72 10.176,130.21 54.961,197.64 l 48.313,-7.17 75.023,-135.95 -178.297,-54.52"
           style="fill:#69b0cc;fill-opacity:1;fill-rule:nonzero;stroke:none"
           id="path4164" />
        <path
           d="m 1058.75,1916.41 c 0,0 -125,-223.05 -39.84,-474.48 l 2494.18,330.08 24.84,392.1 -2479.18,-247.7"
           style="fill:#ffffff;fill-opacity:1;fill-rule:nonzero;stroke:none"
           id="path4166" />
        <path
           d="M 3537.93,2164.11 1058.75,1916.41 495.762,2936.63 2252.44,2973.82 3537.93,2164.11"
           style="fill:#80d6f7;fill-opacity:1;fill-rule:nonzero;stroke:none"
           id="path4168" />
        <path
           d="M 3531.35,2088.32 1192.41,1839.28 c -5.26,-0.56 -9.06,-5.27 -8.5,-10.52 0.56,-5.25 5.27,-9.05 10.52,-8.5 l 2338.95,249.05 c 5.25,0.56 9.05,5.27 8.49,10.52 -0.56,5.25 -5.27,9.05 -10.52,8.49"
           style="fill:#918f90;fill-opacity:1;fill-rule:nonzero;stroke:none"
           id="path4170" />
        <path
           d="M 3531.35,1946.1 1192.41,1697.05 c -5.26,-0.56 -9.06,-5.27 -8.5,-10.52 0.56,-5.25 5.27,-9.06 10.52,-8.5 l 2338.95,249.05 c 5.25,0.56 9.05,5.27 8.49,10.52 -0.56,5.25 -5.27,9.05 -10.52,8.5"
           style="fill:#918f90;fill-opacity:1;fill-rule:nonzero;stroke:none"
           id="path4172" />
        <path
           d="M 3526,2002.64 1186.96,1753.59 c -5.25,-0.56 -9.06,-5.27 -8.5,-10.52 0.56,-5.25 5.27,-9.05 10.52,-8.49 l 2339.04,249.04 c 5.25,0.56 9.06,5.27 8.5,10.52 -0.56,5.25 -5.27,9.06 -10.52,8.5"
           style="fill:#918f90;fill-opacity:1;fill-rule:nonzero;stroke:none"
           id="path4174" />
        <path
           d="M 3518.13,1878.05 1179.12,1629 c -5.25,-0.56 -9.05,-5.27 -8.49,-10.52 0.56,-5.25 5.27,-9.05 10.52,-8.49 l 2339,249.04 c 5.25,0.56 9.06,5.27 8.5,10.52 -0.56,5.25 -5.27,9.06 -10.52,8.5"
           style="fill:#918f90;fill-opacity:1;fill-rule:nonzero;stroke:none"
           id="path4176" />
        <path
           d="M 19.1211,2583.97 1924.92,2237.39 c 71.68,-115.49 48.07,-307.97 -9.59,-384.98 l -1896.2089,346.42 0,385.14"
           style="fill:#deddde;fill-opacity:1;fill-rule:nonzero;stroke:none"
           id="path4178" />
        <path
           d="m 3551.64,3013.64 c 96.17,-125.12 38.38,-288.79 38.38,-288.79 L 1915.33,1852.41 c 57.66,77.01 81.27,269.49 9.59,384.98 l 1626.72,776.25"
           style="fill:#b3baa8;fill-opacity:1;fill-rule:nonzero;stroke:none"
           id="path4180" />
        <path
           d="M 3551.64,3013.64 1924.92,2237.39 19.1211,2583.97 1896.09,3157.94 3551.64,3013.64"
           style="fill:#84887b;fill-opacity:1;fill-rule:nonzero;stroke:none"
           id="path4182" />
        <path
           d="M 17.4102,2478.29 1817.33,2151.05 c 5.2,-0.95 10.18,2.5 11.12,7.7 0.94,5.19 -2.5,10.17 -7.7,11.11 L 20.832,2497.11 c -5.1953,0.94 -10.1718,-2.5 -11.11716,-7.7 -0.94531,-5.19 2.49996,-10.17 7.69536,-11.12"
           style="fill:#918f90;fill-opacity:1;fill-rule:nonzero;stroke:none"
           id="path4184" />
        <path
           d="M 17.4102,2343.53 1817.33,2016.22 c 5.2,-0.94 10.18,2.51 11.12,7.7 0.94,5.2 -2.5,10.17 -7.7,11.12 L 20.832,2362.34 c -5.1953,0.95 -10.1718,-2.5 -11.11716,-7.69 -0.94531,-5.2 2.49996,-10.18 7.69536,-11.12"
           style="fill:#918f90;fill-opacity:1;fill-rule:nonzero;stroke:none"
           id="path4186" />
        <path
           d="M 17.4102,2287.22 1817.33,1959.9 c 5.2,-0.95 10.18,2.5 11.12,7.69 0.94,5.2 -2.5,10.18 -7.7,11.12 L 20.832,2306.03 c -5.1953,0.95 -10.1718,-2.5 -11.11716,-7.69 -0.94531,-5.2 2.49996,-10.17 7.69536,-11.12"
           style="fill:#918f90;fill-opacity:1;fill-rule:nonzero;stroke:none"
           id="path4188" />
        <path
           d="m 87.4805,2959.56 0,-221.33 1944.2595,-299.45 0,231.99 -1944.2595,288.79"
           style="fill:#50b3a2;fill-opacity:1;fill-rule:nonzero;stroke:none"
           id="path4190" />
        <path
           d="m 2031.74,2438.78 1376.33,424.57 0,221.33 -1376.33,-413.91 0,-231.99"
           style="fill:#ffffff;fill-opacity:1;fill-rule:nonzero;stroke:none"
           id="path4192" />
        <path
           d="M 3408.07,3084.68 2031.74,2670.77 87.4805,2959.56 1617.85,3306.06 3408.07,3084.68"
           style="fill:#3b8377;fill-opacity:1;fill-rule:nonzero;stroke:none"
           id="path4194" />
        <path
           d="m 2002.91,2718.95 1280.04,433.17 0,286.76 -1280.04,-384.99 0,-334.94"
           style="fill:#f25846;fill-opacity:1;fill-rule:nonzero;stroke:none"
           id="path4196" />
        <path
           d="m 2002.91,2718.95 -1857.656,327.17 0,286.99 1857.656,-279.22 0,-334.94"
           style="fill:#f25846;fill-opacity:1;fill-rule:nonzero;stroke:none"
           id="path4198" />
        <path
           d="m 2002.91,2718.95 -1857.656,327.17 0,286.99 1857.656,-279.22 0,-334.94"
           style="fill:#b34032;fill-opacity:1;fill-rule:nonzero;stroke:none"
           id="path4200" />
        <path
           d="M 145.254,3333.11 2002.91,3053.89 3282.95,3438.88 1444.67,3712.35 145.254,3333.11"
           style="fill:#f25846;fill-opacity:1;fill-rule:nonzero;stroke:none"
           id="path4202" />
        <path
           d="m 2002.91,3053.89 0,0 -1857.656,279.22 1299.416,379.24 1838.28,-273.47 -1280.04,-384.99"
           style="fill:#c84839;fill-opacity:1;fill-rule:nonzero;stroke:none"
           id="path4204" />
        <path
           d="m 3405.36,3035.27 -1290.2,-380.8 c -5.06,-1.5 -7.95,-6.81 -6.46,-11.88 1.5,-5.06 6.81,-7.96 11.88,-6.46 l 1290.19,380.8 c 5.07,1.5 7.96,6.81 6.47,11.88 -1.5,5.06 -6.82,7.96 -11.88,6.46"
           style="fill:#918f90;fill-opacity:1;fill-rule:nonzero;stroke:none"
           id="path4206" />
        <path
           d="m 3405.36,2954.37 -1290.2,-380.8 c -5.06,-1.49 -7.95,-6.81 -6.46,-11.88 1.5,-5.06 6.81,-7.95 11.88,-6.46 l 1290.19,380.8 c 5.07,1.5 7.96,6.81 6.47,11.88 -1.5,5.06 -6.82,7.96 -11.88,6.46"
           style="fill:#918f90;fill-opacity:1;fill-rule:nonzero;stroke:none"
           id="path4208" />
        <path
           d="M 35.9766,55.5703 35.9766,0 2446.46,70.1406 4849.51,6.39063 l 0,49.17967 L 2445.61,116.309 35.9766,55.5703"
           style="fill:#bf935b;fill-opacity:1;fill-rule:nonzero;stroke:none"
           id="path4210" />
        <path
           d="m 35.9766,0 0,55.5703 2409.6334,60.7387 2403.9,-60.7387 0,-49.17967 L 2446.46,70.1406 35.9766,0"
           style="fill:#8c6b42;fill-opacity:1;fill-rule:nonzero;stroke:none"
           id="path4212" />
        <path
           d="M 2445.61,116.309 35.9766,55.5703 924.063,1040.59 2445.61,992.109 l 0,-875.8"
           style="fill:#bf935b;fill-opacity:1;fill-rule:nonzero;stroke:none"
           id="path4214" />
        <path
           d="M 2445.61,116.309 4850.94,55.5703 3962.87,1040.59 2445.61,992.109 l 0,-875.8"
           style="fill:#bf935b;fill-opacity:1;fill-rule:nonzero;stroke:none"
           id="path4216" />
        <path
           d="m 2445.61,1058.3 0,-706.191 c 0,0 -900.55,357.809 -2058.755,9.34 l 725.035,753.401 c 0,0 519.97,408.22 1333.72,-56.55"
           style="fill:#f4f4f4;fill-opacity:1;fill-rule:nonzero;stroke:none"
           id="path4218" />
        <path
           d="m 2445.61,116.309 c 0,0 -900.55,344.043 -2058.755,-4.411 l 0,249.551 c 1139.355,421.231 2058.755,-9.34 2058.755,-9.34 l 0,-235.8"
           style="fill:#ffffff;fill-opacity:1;fill-rule:nonzero;stroke:none"
           id="path4220" />
        <path
           d="m 389.609,295.75 c 378.262,113.809 728.911,152.07 1029.521,152.07 373.14,0 669.16,-58.961 844.92,-105.539 5.11,-1.351 10.34,1.688 11.7,6.797 1.35,5.102 -1.69,10.332 -6.8,11.692 -177.04,46.91 -474.66,106.171 -849.82,106.171 -302.22,0.008 -654.771,-38.472 -1035.028,-152.882 -5.059,-1.52 -7.922,-6.848 -6.403,-11.911 1.524,-5.058 6.856,-7.918 11.91,-6.398"
           style="fill:#918f90;fill-opacity:1;fill-rule:nonzero;stroke:none"
           id="path4222" />
        <path
           d="m 389.609,235.73 c 378.262,113.809 728.911,152.071 1029.521,152.071 373.14,0.008 669.16,-58.961 844.92,-105.539 5.11,-1.352 10.34,1.687 11.7,6.797 1.35,5.101 -1.69,10.332 -6.8,11.691 -177.04,46.91 -474.66,106.172 -849.82,106.18 -302.22,0 -654.771,-38.481 -1035.028,-152.891 -5.059,-1.519 -7.922,-6.848 -6.403,-11.91 1.524,-5.059 6.856,-7.918 11.91,-6.399"
           style="fill:#918f90;fill-opacity:1;fill-rule:nonzero;stroke:none"
           id="path4224" />
        <path
           d="m 389.609,160.551 c 378.305,113.828 728.991,152.097 1029.621,152.097 373.09,0 669.07,-58.957 844.82,-105.578 5.11,-1.359 10.34,1.68 11.7,6.789 1.35,5.102 -1.69,10.34 -6.79,11.692 -177.03,46.961 -474.62,106.219 -849.73,106.219 -302.25,0 -654.832,-38.481 -1035.128,-152.911 -5.059,-1.519 -7.922,-6.847 -6.403,-11.91 1.524,-5.051 6.856,-7.918 11.91,-6.398"
           style="fill:#918f90;fill-opacity:1;fill-rule:nonzero;stroke:none"
           id="path4226" />
        <path
           d="m 2445.61,1058.3 0,-706.191 c 0,0 900.52,357.809 2058.71,9.34 L 3779.3,1114.85 c 0,0 -470.8,244.84 -1333.69,-56.55"
           style="fill:#d3d2d2;fill-opacity:1;fill-rule:nonzero;stroke:none"
           id="path4228" />
        <path
           d="m 2445.61,1058.3 0,-706.191 c 0,0 838.41,666.781 2026.62,288.032 l -725.3,753.399 c 0,0 -757.77,220.19 -1301.32,-335.24"
           style="fill:#e9e9e9;fill-opacity:1;fill-rule:nonzero;stroke:none"
           id="path4230" />
        <path
           d="m 2445.61,1058.3 0,-706.191 c 0,0 698.26,747.911 1866.81,693.151 l -725.31,753.4 c 0,0 -745.1,-195.57 -1141.5,-740.36"
           style="fill:#ffffff;fill-opacity:1;fill-rule:nonzero;stroke:none"
           id="path4232" />
        <path
           d="m 2445.61,116.309 c 0,0 900.52,344.043 2058.71,-4.411 l 0,249.551 c -1158.19,348.469 -2058.71,-9.34 -2058.71,-9.34 l 0,-235.8"
           style="fill:#ffffff;fill-opacity:1;fill-rule:nonzero;stroke:none"
           id="path4234" />
        <path
           d="m 4507.07,298.898 c -380.26,114.411 -732.81,152.891 -1035.01,152.891 -375.15,-0.008 -672.73,-59.277 -849.65,-106.199 -5.1,-1.352 -8.14,-6.59 -6.79,-11.692 1.36,-5.109 6.59,-8.148 11.69,-6.789 175.64,46.582 471.62,105.563 844.75,105.551 300.59,0 651.24,-38.262 1029.5,-152.07 5.06,-1.52 10.39,1.351 11.91,6.398 1.52,5.063 -1.34,10.391 -6.4,11.91"
           style="fill:#918f90;fill-opacity:1;fill-rule:nonzero;stroke:none"
           id="path4236" />
        <path
           d="m 4507.07,213.828 c -380.31,114.422 -732.9,152.91 -1035.13,152.902 -375.1,0 -672.63,-59.261 -849.53,-106.218 -5.1,-1.352 -8.14,-6.59 -6.79,-11.692 1.36,-5.109 6.59,-8.148 11.7,-6.789 175.61,46.617 471.54,105.578 844.62,105.578 300.61,0 651.31,-38.269 1029.62,-152.097 5.06,-1.524 10.39,1.347 11.91,6.398 1.52,5.059 -1.34,10.391 -6.4,11.91"
           style="fill:#918f90;fill-opacity:1;fill-rule:nonzero;stroke:none"
           id="path4238" />
      </g>
    </g>
    <g
       transform="matrix(2.9776718,0,0,2.9776718,636.9444,619.05119)"
       id="layer1-3">
      <g
         transform="matrix(1.190476,0,0,1.190476,-4.224424,-2.5)"
         id="Layer_x0020_2"
         style="fill-rule:nonzero;stroke:#000000;stroke-miterlimit:4">
        <g
           style="stroke:none"
           id="g3002">
          <g
             id="g3004">
            <path
               style="opacity:0"
               d="m 24,31 c -11.6,0 -21,2.6 -21,5.9 0,3.3 9.4,5.9 21,5.9 11.6,0 21,-2.6 21,-5.9 C 45,33.6 35.6,31 24,31 Z m 0,7.3 c -2.8,0 -5,-0.6 -5,-1.4 0,-0.8 2.3,-1.4 5,-1.4 2.8,0 5,0.6 5,1.4 0,0.8 -2.3,1.4 -5,1.4 z"
               id="path3006" />
            <path
               style="opacity:0.00636363"
               d="m 24,31.2 c -11.2,0 -20.2,2.5 -20.2,5.7 0,3.2 9.1,5.7 20.2,5.7 11.2,0 20.2,-2.5 20.2,-5.7 0,-3.2 -9.1,-5.7 -20.2,-5.7 l 0,0 z m 0,7 c -2.7,0 -4.9,-0.6 -4.9,-1.4 0,-0.8 2.2,-1.4 4.9,-1.4 2.7,0 4.9,0.6 4.9,1.4 0,0.8 -2.2,1.4 -4.9,1.4 z"
               id="path3008" />
            <path
               style="opacity:0.01272727"
               d="m 24,31.4 c -10.8,0 -19.5,2.4 -19.5,5.5 0,3 8.7,5.5 19.5,5.5 10.8,0 19.5,-2.4 19.5,-5.5 0,-3 -8.7,-5.5 -19.5,-5.5 z m 0,6.8 c -2.6,0 -4.7,-0.6 -4.7,-1.3 0,-0.7 2.1,-1.3 4.7,-1.3 2.6,0 4.7,0.6 4.7,1.3 0,0.7 -2.1,1.3 -4.7,1.3 z"
               id="path3010" />
            <path
               style="opacity:0.0190909"
               d="m 24,31.6 c -10.3,0 -18.7,2.3 -18.7,5.2 0,2.9 8.4,5.2 18.7,5.2 10.3,0 18.7,-2.3 18.7,-5.2 0,-2.9 -8.4,-5.2 -18.7,-5.2 l 0,0 z m 0,6.5 c -2.5,0 -4.5,-0.6 -4.5,-1.3 0,-0.7 2,-1.3 4.5,-1.3 2.5,0 4.5,0.6 4.5,1.3 0,0.7 -2,1.3 -4.5,1.3 z"
               id="path3012" />
            <path
               style="opacity:0.02545453"
               d="m 24,31.9 c -9.9,0 -17.9,2.2 -17.9,5 0,2.8 8,5 17.9,5 9.9,0 17.9,-2.2 17.9,-5 0,-2.8 -8,-5 -17.9,-5 z m 0,6.2 c -2.4,0 -4.3,-0.5 -4.3,-1.2 0,-0.7 1.9,-1.2 4.3,-1.2 2.4,0 4.3,0.5 4.3,1.2 0,0.7 -1.9,1.2 -4.3,1.2 z"
               id="path3014" />
            <path
               style="opacity:0.03181817"
               d="m 24,32.1 c -9.5,0 -17.1,2.2 -17.1,4.8 0,2.6 7.7,4.8 17.1,4.8 9.5,0 17.1,-2.1 17.1,-4.8 0,-2.7 -7.7,-4.8 -17.1,-4.8 z m 0,5.9 c -2.3,0 -4.1,-0.5 -4.1,-1.2 0,-0.6 1.8,-1.2 4.1,-1.2 2.3,0 4.1,0.5 4.1,1.2 0,0.6 -1.8,1.2 -4.1,1.2 z"
               id="path3016" />
            <path
               style="opacity:0.0381818"
               d="m 24,32.3 c -9,0 -16.4,2.1 -16.4,4.6 0,2.5 7.3,4.6 16.4,4.6 9,0 16.4,-2.1 16.4,-4.6 0,-2.5 -7.3,-4.6 -16.4,-4.6 z m 0,5.7 c -2.2,0 -3.9,-0.5 -3.9,-1.1 0,-0.6 1.8,-1.1 3.9,-1.1 2.1,0 3.9,0.5 3.9,1.1 0,0.6 -1.8,1.1 -3.9,1.1 z"
               id="path3018" />
            <path
               style="opacity:0.04454543"
               d="m 24,32.5 c -8.6,0 -15.6,2 -15.6,4.4 0,2.4 7,4.4 15.6,4.4 8.6,0 15.6,-2 15.6,-4.4 0,-2.4 -7,-4.4 -15.6,-4.4 z m 0,5.4 c -2.1,0 -3.7,-0.5 -3.7,-1 0,-0.6 1.7,-1 3.7,-1 2,0 3.7,0.5 3.7,1 0,0.6 -1.7,1 -3.7,1 z"
               id="path3020" />
            <path
               style="opacity:0.05090906"
               d="m 24,32.7 c -8.2,0 -14.8,1.9 -14.8,4.2 0,2.3 6.6,4.2 14.8,4.2 8.2,0 14.8,-1.9 14.8,-4.2 0,-2.3 -6.6,-4.2 -14.8,-4.2 l 0,0 z m 0,5.2 c -2,0 -3.6,-0.4 -3.6,-1 0,-0.5 1.6,-1 3.6,-1 2,0 3.6,0.4 3.6,1 0,0.5 -1.6,1 -3.6,1 z"
               id="path3022" />
            <path
               style="opacity:0.0572727"
               d="m 24,32.9 c -7.8,0 -14.1,1.8 -14.1,3.9 0,2.1 6.3,3.9 14.1,3.9 7.8,0 14.1,-1.8 14.1,-3.9 0,-2.1 -6.3,-3.9 -14.1,-3.9 z m 0,4.9 c -1.9,0 -3.4,-0.4 -3.4,-0.9 0,-0.5 1.5,-0.9 3.4,-0.9 1.9,0 3.4,0.4 3.4,0.9 0,0.5 -1.5,0.9 -3.4,0.9 z"
               id="path3024" />
            <path
               style="opacity:0.06363633"
               d="m 24,33.1 c -7.3,0 -13.3,1.7 -13.3,3.7 0,2.1 5.9,3.7 13.3,3.7 7.3,0 13.3,-1.7 13.3,-3.7 0,-2.1 -5.9,-3.7 -13.3,-3.7 l 0,0 z m 0,4.7 c -1.8,0 -3.2,-0.4 -3.2,-0.9 0,-0.5 1.4,-0.9 3.2,-0.9 1.8,0 3.2,0.4 3.2,0.9 0,0.5 -1.4,0.9 -3.2,0.9 z"
               id="path3026" />
            <path
               style="opacity:0.07000002"
               d="m 24,33.4 c -6.9,0 -12.5,1.6 -12.5,3.5 0,1.9 5.6,3.5 12.5,3.5 6.9,0 12.5,-1.6 12.5,-3.5 C 36.5,35 31,33.4 24,33.4 Z m 0,4.3 c -1.7,0 -3,-0.4 -3,-0.8 0,-0.5 1.3,-0.8 3,-0.8 1.7,0 3,0.4 3,0.8 0,0.5 -1.3,0.8 -3,0.8 z"
               id="path3028" />
          </g>
        </g>
      </g>
      <path
         id="path3040"
         d="M 24.347006,4.1666669 C 12.799386,4.1666669 3.5136719,13.452381 3.5136719,25 c 0,11.54762 9.2857141,20.833335 20.8333341,20.833335 11.54762,0 20.833335,-9.285715 20.833335,-20.833335 0,-11.547619 -9.285715,-20.8333331 -20.833335,-20.8333331 l 0,0 z m 0,25.8333341 c -2.738095,0 -5,-2.261905 -5,-5.000001 0,-2.738095 2.261905,-5 5,-5 2.738095,0 5,2.261905 5,5 0,2.738096 -2.261905,5.000001 -5,5.000001 z"
         style="fill:url(#linearGradient3912);fill-rule:nonzero;stroke:none;stroke-miterlimit:4" />
      <path
         id="path3049"
         d="M 24.347006,4.1666665 C 12.799386,4.1666665 3.513672,13.452381 3.513672,25 c 0,11.54762 9.285714,20.833335 20.833334,20.833335 11.54762,0 20.833335,-9.285715 20.833335,-20.833335 0,-11.547619 -9.285715,-20.8333335 -20.833335,-20.8333335 l 0,0 z m 0,25.8333345 c -2.738095,0 -5,-2.261905 -5,-5.000001 0,-2.738095 2.261905,-5 5,-5 2.738095,0 5,2.261905 5,5 0,2.738096 -2.261905,5.000001 -5,5.000001 z"
         style="fill:url(#linearGradient4242);fill-rule:nonzero;stroke:#808080;stroke-miterlimit:4;stroke-opacity:1" />
      <path
         id="path3051"
         d="M 24.347006,14.895835 C 18.70442,14.895835 14.24284,19.488638 14.24284,25 c 0,5.642588 4.592804,10.104166 10.104166,10.104166 5.642586,0 10.104166,-4.592802 10.104166,-10.104166 0,-5.642586 -4.592804,-10.104165 -10.104166,-10.104165 l 0,0 z m 0,15.615529 c -3.018127,0 -5.511362,-2.493235 -5.511362,-5.511364 0,-3.018127 2.493235,-5.511362 5.511362,-5.511362 3.018127,0 5.511362,2.493235 5.511362,5.511362 0,3.018129 -2.493235,5.511364 -5.511362,5.511364 z"
         style="opacity:0.10999995;fill-rule:nonzero;stroke:none;stroke-miterlimit:4" />
      <path
         style="fill:url(#linearGradient4429);fill-opacity:1;fill-rule:nonzero;stroke:none;stroke-miterlimit:4;stroke-opacity:1"
         d="M 29.922111,5.6692337 26.325518,19.663896 c 1.124704,0.299517 2.024143,0.99547 2.635128,1.958542 l 12.39222,-7.549285 C 38.817618,9.9434382 34.748656,6.9050853 29.922111,5.6692337 Z"
         id="path3916" />
      <path
         id="path4214-5"
         d="M 17.307824,43.766057 22.043079,30.114558 C 20.946815,29.723566 20.107654,28.956005 19.577936,27.945951 L 6.6068752,34.450599 c 2.1870573,4.324212 5.9923798,7.686883 10.7009488,9.315458 z"
         style="fill:url(#linearGradient4222);fill-opacity:1;fill-rule:nonzero;stroke:none;stroke-miterlimit:4;stroke-opacity:1" />
      <path
         style="opacity:0.54644811;fill:none;fill-rule:nonzero;stroke:url(#linearGradient6042);stroke-miterlimit:4;stroke-opacity:1"
         d="m 24.347002,5.2023655 c -10.973544,0 -19.7976309,8.8240885 -19.7976309,19.7976315 0,10.973544 8.8240869,19.797631 19.7976309,19.797631 10.973544,0 19.797631,-8.824087 19.797631,-19.797631 0,-10.973543 -8.824087,-19.7976315 -19.797631,-19.7976315 l 0,0 z"
         id="path5264" />
      <circle
         r="6.0987959"
         cy="24.930641"
         cx="24.306795"
         style="color:#000000;display:inline;overflow:visible;visibility:visible;opacity:0.67213111;fill:none;fill-opacity:0.31638417;fill-rule:nonzero;stroke:url(#linearGradient6034);stroke-width:0.93053865;stroke-linecap:butt;stroke-linejoin:miter;stroke-miterlimit:4;stroke-dashoffset:0;stroke-opacity:1;marker:none;marker-start:none;marker-mid:none;marker-end:none"
         id="path6026"
         transform="translate(0.08838835,0.08838865)" />
      <path
         style="opacity:0.1142857;fill:url(#radialGradient3392);fill-opacity:1;fill-rule:nonzero;stroke:none;stroke-miterlimit:4;stroke-opacity:1"
         d="M 24.347006,4.1666665 C 12.799386,4.1666665 3.513672,13.452381 3.513672,25 c 0,11.54762 9.285714,20.833335 20.833334,20.833335 11.54762,0 20.833335,-9.285715 20.833335,-20.833335 0,-11.547619 -9.285715,-20.8333335 -20.833335,-20.8333335 l 0,0 z m 0,25.8333345 c -2.738095,0 -5,-2.261905 -5,-5.000001 0,-2.738095 2.261905,-5 5,-5 2.738095,0 5,2.261905 5,5 0,2.738096 -2.261905,5.000001 -5,5.000001 z"
         id="path3390" />
      <path
         id="path3404"
         d="M 24.347006,4.1666665 C 12.799386,4.1666665 3.513672,13.452381 3.513672,25 c 0,11.54762 9.285714,20.833335 20.833334,20.833335 11.54762,0 20.833335,-9.285715 20.833335,-20.833335 0,-11.547619 -9.285715,-20.8333335 -20.833335,-20.8333335 l 0,0 z m 0,25.8333345 c -2.738095,0 -5,-2.261905 -5,-5.000001 0,-2.738095 2.261905,-5 5,-5 2.738095,0 5,2.261905 5,5 0,2.738096 -2.261905,5.000001 -5,5.000001 z"
         style="opacity:0.09714284;fill:url(#radialGradient3449);fill-opacity:1;fill-rule:nonzero;stroke:none;stroke-miterlimit:4;stroke-opacity:1" />
      <path
         style="opacity:0.71428576;fill:url(#radialGradient3429);fill-opacity:1;fill-rule:nonzero;stroke:none;stroke-miterlimit:4;stroke-opacity:1"
         d="M 24.347006,4.1666665 C 12.799386,4.1666665 3.513672,13.452381 3.513672,25 c 0,11.54762 9.285714,20.833335 20.833334,20.833335 11.54762,0 20.833335,-9.285715 20.833335,-20.833335 0,-11.547619 -9.285715,-20.8333335 -20.833335,-20.8333335 l 0,0 z m 0,25.8333345 c -2.738095,0 -5,-2.261905 -5,-5.000001 0,-2.738095 2.261905,-5 5,-5 2.738095,0 5,2.261905 5,5 0,2.738096 -2.261905,5.000001 -5,5.000001 z"
         id="path3419" />
      <path
         id="path3431"
         d="M 24.347006,4.1666665 C 12.799386,4.1666665 3.513672,13.452381 3.513672,25 c 0,11.54762 9.285714,20.833335 20.833334,20.833335 11.54762,0 20.833335,-9.285715 20.833335,-20.833335 0,-11.547619 -9.285715,-20.8333335 -20.833335,-20.8333335 l 0,0 z m 0,25.8333345 c -2.738095,0 -5,-2.261905 -5,-5.000001 0,-2.738095 2.261905,-5 5,-5 2.738095,0 5,2.261905 5,5 0,2.738096 -2.261905,5.000001 -5,5.000001 z"
         style="opacity:0.62285713;fill:url(#radialGradient3433);fill-opacity:1;fill-rule:nonzero;stroke:none;stroke-miterlimit:4;stroke-opacity:1" />
      <path
         style="opacity:0.37142861;fill:url(#radialGradient3443);fill-opacity:1;fill-rule:nonzero;stroke:none;stroke-miterlimit:4;stroke-opacity:1"
         d="M 24.347006,4.1666665 C 12.799386,4.1666665 3.513672,13.452381 3.513672,25 c 0,11.54762 9.285714,20.833335 20.833334,20.833335 11.54762,0 20.833335,-9.285715 20.833335,-20.833335 0,-11.547619 -9.285715,-20.8333335 -20.833335,-20.8333335 l 0,0 z m 0,25.8333345 c -2.738095,0 -5,-2.261905 -5,-5.000001 0,-2.738095 2.261905,-5 5,-5 2.738095,0 5,2.261905 5,5 0,2.738096 -2.261905,5.000001 -5,5.000001 z"
         id="path3441" />
      <path
         id="path3445"
         d="M 24.347006,4.1666665 C 12.799386,4.1666665 3.513672,13.452381 3.513672,25 c 0,11.54762 9.285714,20.833335 20.833334,20.833335 11.54762,0 20.833335,-9.285715 20.833335,-20.833335 0,-11.547619 -9.285715,-20.8333335 -20.833335,-20.8333335 l 0,0 z m 0,25.8333345 c -2.738095,0 -5,-2.261905 -5,-5.000001 0,-2.738095 2.261905,-5 5,-5 2.738095,0 5,2.261905 5,5 0,2.738096 -2.261905,5.000001 -5,5.000001 z"
         style="opacity:0.23428572;fill:url(#radialGradient3447);fill-opacity:1;fill-rule:nonzero;stroke:none;stroke-miterlimit:4;stroke-opacity:1" />
    </g>
    <g
       id="g4431"
       transform="matrix(3.2966511,0,0,3.2966511,574.29555,686.45301)">
      <g
         style="fill-rule:nonzero;stroke:#000000;stroke-miterlimit:4"
         id="g4433"
         transform="matrix(1.190476,0,0,1.190476,-4.224424,-2.5)">
        <g
           id="g4435"
           style="stroke:none">
          <g
             id="g4437">
            <path
               id="path4439"
               d="m 24,31 c -11.6,0 -21,2.6 -21,5.9 0,3.3 9.4,5.9 21,5.9 11.6,0 21,-2.6 21,-5.9 C 45,33.6 35.6,31 24,31 Z m 0,7.3 c -2.8,0 -5,-0.6 -5,-1.4 0,-0.8 2.3,-1.4 5,-1.4 2.8,0 5,0.6 5,1.4 0,0.8 -2.3,1.4 -5,1.4 z"
               style="opacity:0" />
            <path
               id="path4441"
               d="m 24,31.2 c -11.2,0 -20.2,2.5 -20.2,5.7 0,3.2 9.1,5.7 20.2,5.7 11.2,0 20.2,-2.5 20.2,-5.7 0,-3.2 -9.1,-5.7 -20.2,-5.7 l 0,0 z m 0,7 c -2.7,0 -4.9,-0.6 -4.9,-1.4 0,-0.8 2.2,-1.4 4.9,-1.4 2.7,0 4.9,0.6 4.9,1.4 0,0.8 -2.2,1.4 -4.9,1.4 z"
               style="opacity:0.00636363" />
            <path
               id="path4443"
               d="m 24,31.4 c -10.8,0 -19.5,2.4 -19.5,5.5 0,3 8.7,5.5 19.5,5.5 10.8,0 19.5,-2.4 19.5,-5.5 0,-3 -8.7,-5.5 -19.5,-5.5 z m 0,6.8 c -2.6,0 -4.7,-0.6 -4.7,-1.3 0,-0.7 2.1,-1.3 4.7,-1.3 2.6,0 4.7,0.6 4.7,1.3 0,0.7 -2.1,1.3 -4.7,1.3 z"
               style="opacity:0.01272727" />
            <path
               id="path4445"
               d="m 24,31.6 c -10.3,0 -18.7,2.3 -18.7,5.2 0,2.9 8.4,5.2 18.7,5.2 10.3,0 18.7,-2.3 18.7,-5.2 0,-2.9 -8.4,-5.2 -18.7,-5.2 l 0,0 z m 0,6.5 c -2.5,0 -4.5,-0.6 -4.5,-1.3 0,-0.7 2,-1.3 4.5,-1.3 2.5,0 4.5,0.6 4.5,1.3 0,0.7 -2,1.3 -4.5,1.3 z"
               style="opacity:0.0190909" />
            <path
               id="path4447"
               d="m 24,31.9 c -9.9,0 -17.9,2.2 -17.9,5 0,2.8 8,5 17.9,5 9.9,0 17.9,-2.2 17.9,-5 0,-2.8 -8,-5 -17.9,-5 z m 0,6.2 c -2.4,0 -4.3,-0.5 -4.3,-1.2 0,-0.7 1.9,-1.2 4.3,-1.2 2.4,0 4.3,0.5 4.3,1.2 0,0.7 -1.9,1.2 -4.3,1.2 z"
               style="opacity:0.02545453" />
            <path
               id="path4449"
               d="m 24,32.1 c -9.5,0 -17.1,2.2 -17.1,4.8 0,2.6 7.7,4.8 17.1,4.8 9.5,0 17.1,-2.1 17.1,-4.8 0,-2.7 -7.7,-4.8 -17.1,-4.8 z m 0,5.9 c -2.3,0 -4.1,-0.5 -4.1,-1.2 0,-0.6 1.8,-1.2 4.1,-1.2 2.3,0 4.1,0.5 4.1,1.2 0,0.6 -1.8,1.2 -4.1,1.2 z"
               style="opacity:0.03181817" />
            <path
               id="path4451"
               d="m 24,32.3 c -9,0 -16.4,2.1 -16.4,4.6 0,2.5 7.3,4.6 16.4,4.6 9,0 16.4,-2.1 16.4,-4.6 0,-2.5 -7.3,-4.6 -16.4,-4.6 z m 0,5.7 c -2.2,0 -3.9,-0.5 -3.9,-1.1 0,-0.6 1.8,-1.1 3.9,-1.1 2.1,0 3.9,0.5 3.9,1.1 0,0.6 -1.8,1.1 -3.9,1.1 z"
               style="opacity:0.0381818" />
            <path
               id="path4453"
               d="m 24,32.5 c -8.6,0 -15.6,2 -15.6,4.4 0,2.4 7,4.4 15.6,4.4 8.6,0 15.6,-2 15.6,-4.4 0,-2.4 -7,-4.4 -15.6,-4.4 z m 0,5.4 c -2.1,0 -3.7,-0.5 -3.7,-1 0,-0.6 1.7,-1 3.7,-1 2,0 3.7,0.5 3.7,1 0,0.6 -1.7,1 -3.7,1 z"
               style="opacity:0.04454543" />
            <path
               id="path4455"
               d="m 24,32.7 c -8.2,0 -14.8,1.9 -14.8,4.2 0,2.3 6.6,4.2 14.8,4.2 8.2,0 14.8,-1.9 14.8,-4.2 0,-2.3 -6.6,-4.2 -14.8,-4.2 l 0,0 z m 0,5.2 c -2,0 -3.6,-0.4 -3.6,-1 0,-0.5 1.6,-1 3.6,-1 2,0 3.6,0.4 3.6,1 0,0.5 -1.6,1 -3.6,1 z"
               style="opacity:0.05090906" />
            <path
               id="path4457"
               d="m 24,32.9 c -7.8,0 -14.1,1.8 -14.1,3.9 0,2.1 6.3,3.9 14.1,3.9 7.8,0 14.1,-1.8 14.1,-3.9 0,-2.1 -6.3,-3.9 -14.1,-3.9 z m 0,4.9 c -1.9,0 -3.4,-0.4 -3.4,-0.9 0,-0.5 1.5,-0.9 3.4,-0.9 1.9,0 3.4,0.4 3.4,0.9 0,0.5 -1.5,0.9 -3.4,0.9 z"
               style="opacity:0.0572727" />
            <path
               id="path4459"
               d="m 24,33.1 c -7.3,0 -13.3,1.7 -13.3,3.7 0,2.1 5.9,3.7 13.3,3.7 7.3,0 13.3,-1.7 13.3,-3.7 0,-2.1 -5.9,-3.7 -13.3,-3.7 l 0,0 z m 0,4.7 c -1.8,0 -3.2,-0.4 -3.2,-0.9 0,-0.5 1.4,-0.9 3.2,-0.9 1.8,0 3.2,0.4 3.2,0.9 0,0.5 -1.4,0.9 -3.2,0.9 z"
               style="opacity:0.06363633" />
            <path
               id="path4461"
               d="m 24,33.4 c -6.9,0 -12.5,1.6 -12.5,3.5 0,1.9 5.6,3.5 12.5,3.5 6.9,0 12.5,-1.6 12.5,-3.5 C 36.5,35 31,33.4 24,33.4 Z m 0,4.3 c -1.7,0 -3,-0.4 -3,-0.8 0,-0.5 1.3,-0.8 3,-0.8 1.7,0 3,0.4 3,0.8 0,0.5 -1.3,0.8 -3,0.8 z"
               style="opacity:0.07000002" />
          </g>
        </g>
      </g>
      <path
         style="fill:url(#linearGradient4489);fill-rule:nonzero;stroke:none;stroke-miterlimit:4"
         d="M 24.347006,4.1666669 C 12.799386,4.1666669 3.5136719,13.452381 3.5136719,25 c 0,11.54762 9.2857141,20.833335 20.8333341,20.833335 11.54762,0 20.833335,-9.285715 20.833335,-20.833335 0,-11.547619 -9.285715,-20.8333331 -20.833335,-20.8333331 l 0,0 z m 0,25.8333341 c -2.738095,0 -5,-2.261905 -5,-5.000001 0,-2.738095 2.261905,-5 5,-5 2.738095,0 5,2.261905 5,5 0,2.738096 -2.261905,5.000001 -5,5.000001 z"
         id="path4463" />
      <path
         style="fill:url(#linearGradient4491);fill-rule:nonzero;stroke:#808080;stroke-miterlimit:4;stroke-opacity:1"
         d="M 24.347006,4.1666665 C 12.799386,4.1666665 3.513672,13.452381 3.513672,25 c 0,11.54762 9.285714,20.833335 20.833334,20.833335 11.54762,0 20.833335,-9.285715 20.833335,-20.833335 0,-11.547619 -9.285715,-20.8333335 -20.833335,-20.8333335 l 0,0 z m 0,25.8333345 c -2.738095,0 -5,-2.261905 -5,-5.000001 0,-2.738095 2.261905,-5 5,-5 2.738095,0 5,2.261905 5,5 0,2.738096 -2.261905,5.000001 -5,5.000001 z"
         id="path4465" />
      <path
         style="opacity:0.10999995;fill-rule:nonzero;stroke:none;stroke-miterlimit:4"
         d="M 24.347006,14.895835 C 18.70442,14.895835 14.24284,19.488638 14.24284,25 c 0,5.642588 4.592804,10.104166 10.104166,10.104166 5.642586,0 10.104166,-4.592802 10.104166,-10.104166 0,-5.642586 -4.592804,-10.104165 -10.104166,-10.104165 l 0,0 z m 0,15.615529 c -3.018127,0 -5.511362,-2.493235 -5.511362,-5.511364 0,-3.018127 2.493235,-5.511362 5.511362,-5.511362 3.018127,0 5.511362,2.493235 5.511362,5.511362 0,3.018129 -2.493235,5.511364 -5.511362,5.511364 z"
         id="path4467" />
      <path
         id="path4469"
         d="M 29.922111,5.6692337 26.325518,19.663896 c 1.124704,0.299517 2.024143,0.99547 2.635128,1.958542 l 12.39222,-7.549285 C 38.817618,9.9434382 34.748656,6.9050853 29.922111,5.6692337 Z"
         style="fill:url(#linearGradient4493);fill-opacity:1;fill-rule:nonzero;stroke:none;stroke-miterlimit:4;stroke-opacity:1" />
      <path
         style="fill:url(#linearGradient4495);fill-opacity:1;fill-rule:nonzero;stroke:none;stroke-miterlimit:4;stroke-opacity:1"
         d="M 17.307824,43.766057 22.043079,30.114558 C 20.946815,29.723566 20.107654,28.956005 19.577936,27.945951 L 6.6068752,34.450599 c 2.1870573,4.324212 5.9923798,7.686883 10.7009488,9.315458 z"
         id="path4471" />
      <path
         id="path4473"
         d="m 24.347002,5.2023655 c -10.973544,0 -19.7976309,8.8240885 -19.7976309,19.7976315 0,10.973544 8.8240869,19.797631 19.7976309,19.797631 10.973544,0 19.797631,-8.824087 19.797631,-19.797631 0,-10.973543 -8.824087,-19.7976315 -19.797631,-19.7976315 l 0,0 z"
         style="opacity:0.54644811;fill:none;fill-rule:nonzero;stroke:url(#linearGradient4497);stroke-miterlimit:4;stroke-opacity:1" />
      <circle
         transform="translate(0.08838835,0.08838865)"
         id="circle4475"
         style="color:#000000;display:inline;overflow:visible;visibility:visible;opacity:0.67213111;fill:none;fill-opacity:0.31638417;fill-rule:nonzero;stroke:url(#linearGradient4499);stroke-width:0.93053865;stroke-linecap:butt;stroke-linejoin:miter;stroke-miterlimit:4;stroke-dashoffset:0;stroke-opacity:1;marker:none;marker-start:none;marker-mid:none;marker-end:none"
         cx="24.306795"
         cy="24.930641"
         r="6.0987959" />
      <path
         id="path4477"
         d="M 24.347006,4.1666665 C 12.799386,4.1666665 3.513672,13.452381 3.513672,25 c 0,11.54762 9.285714,20.833335 20.833334,20.833335 11.54762,0 20.833335,-9.285715 20.833335,-20.833335 0,-11.547619 -9.285715,-20.8333335 -20.833335,-20.8333335 l 0,0 z m 0,25.8333345 c -2.738095,0 -5,-2.261905 -5,-5.000001 0,-2.738095 2.261905,-5 5,-5 2.738095,0 5,2.261905 5,5 0,2.738096 -2.261905,5.000001 -5,5.000001 z"
         style="opacity:0.1142857;fill:url(#radialGradient4501);fill-opacity:1;fill-rule:nonzero;stroke:none;stroke-miterlimit:4;stroke-opacity:1" />
      <path
         style="opacity:0.09714284;fill:url(#radialGradient4503);fill-opacity:1;fill-rule:nonzero;stroke:none;stroke-miterlimit:4;stroke-opacity:1"
         d="M 24.347006,4.1666665 C 12.799386,4.1666665 3.513672,13.452381 3.513672,25 c 0,11.54762 9.285714,20.833335 20.833334,20.833335 11.54762,0 20.833335,-9.285715 20.833335,-20.833335 0,-11.547619 -9.285715,-20.8333335 -20.833335,-20.8333335 l 0,0 z m 0,25.8333345 c -2.738095,0 -5,-2.261905 -5,-5.000001 0,-2.738095 2.261905,-5 5,-5 2.738095,0 5,2.261905 5,5 0,2.738096 -2.261905,5.000001 -5,5.000001 z"
         id="path4479" />
      <path
         id="path4481"
         d="M 24.347006,4.1666665 C 12.799386,4.1666665 3.513672,13.452381 3.513672,25 c 0,11.54762 9.285714,20.833335 20.833334,20.833335 11.54762,0 20.833335,-9.285715 20.833335,-20.833335 0,-11.547619 -9.285715,-20.8333335 -20.833335,-20.8333335 l 0,0 z m 0,25.8333345 c -2.738095,0 -5,-2.261905 -5,-5.000001 0,-2.738095 2.261905,-5 5,-5 2.738095,0 5,2.261905 5,5 0,2.738096 -2.261905,5.000001 -5,5.000001 z"
         style="opacity:0.71428576;fill:url(#radialGradient4505);fill-opacity:1;fill-rule:nonzero;stroke:none;stroke-miterlimit:4;stroke-opacity:1" />
      <path
         style="opacity:0.62285713;fill:url(#radialGradient4507);fill-opacity:1;fill-rule:nonzero;stroke:none;stroke-miterlimit:4;stroke-opacity:1"
         d="M 24.347006,4.1666665 C 12.799386,4.1666665 3.513672,13.452381 3.513672,25 c 0,11.54762 9.285714,20.833335 20.833334,20.833335 11.54762,0 20.833335,-9.285715 20.833335,-20.833335 0,-11.547619 -9.285715,-20.8333335 -20.833335,-20.8333335 l 0,0 z m 0,25.8333345 c -2.738095,0 -5,-2.261905 -5,-5.000001 0,-2.738095 2.261905,-5 5,-5 2.738095,0 5,2.261905 5,5 0,2.738096 -2.261905,5.000001 -5,5.000001 z"
         id="path4483" />
      <path
         id="path4485"
         d="M 24.347006,4.1666665 C 12.799386,4.1666665 3.513672,13.452381 3.513672,25 c 0,11.54762 9.285714,20.833335 20.833334,20.833335 11.54762,0 20.833335,-9.285715 20.833335,-20.833335 0,-11.547619 -9.285715,-20.8333335 -20.833335,-20.8333335 l 0,0 z m 0,25.8333345 c -2.738095,0 -5,-2.261905 -5,-5.000001 0,-2.738095 2.261905,-5 5,-5 2.738095,0 5,2.261905 5,5 0,2.738096 -2.261905,5.000001 -5,5.000001 z"
         style="opacity:0.37142861;fill:url(#radialGradient4509);fill-opacity:1;fill-rule:nonzero;stroke:none;stroke-miterlimit:4;stroke-opacity:1" />
      <path
         style="opacity:0.23428572;fill:url(#radialGradient4511);fill-opacity:1;fill-rule:nonzero;stroke:none;stroke-miterlimit:4;stroke-opacity:1"
         d="M 24.347006,4.1666665 C 12.799386,4.1666665 3.513672,13.452381 3.513672,25 c 0,11.54762 9.285714,20.833335 20.833334,20.833335 11.54762,0 20.833335,-9.285715 20.833335,-20.833335 0,-11.547619 -9.285715,-20.8333335 -20.833335,-20.8333335 l 0,0 z m 0,25.8333345 c -2.738095,0 -5,-2.261905 -5,-5.000001 0,-2.738095 2.261905,-5 5,-5 2.738095,0 5,2.261905 5,5 0,2.738096 -2.261905,5.000001 -5,5.000001 z"
         id="path4487" />
    </g>
  </g>
</svg>
