<?xml version="1.0" encoding="UTF-8" standalone="no"?>
<svg id="svg2" xmlns:rdf="http://www.w3.org/1999/02/22-rdf-syntax-ns#" xmlns="http://www.w3.org/2000/svg" viewBox="0 0 800.00001 600.00001" width="800" version="1.1" xmlns:cc="http://creativecommons.org/ns#" height="600" xmlns:dc="http://purl.org/dc/elements/1.1/">
 <metadata id="metadata7">
  <rdf:RDF>
   <cc:Work rdf:about="">
    <dc:format>image/svg+xml</dc:format>
    <dc:type rdf:resource="http://purl.org/dc/dcmitype/StillImage"/>
    <dc:title/>
   </cc:Work>
  </rdf:RDF>
 </metadata>
 <g id="layer1" transform="translate(0 -452.36)">
  <g id="g4980" transform="matrix(.75019 -.24892 .24892 .75019 -232.11 223.54)">
   <path id="path3360" d="m687.46 608.75 1.2623 0.98109 2.2607 0.59994 1.0447 1.9693 1.6607 1.2784 1.9509 0.95016 1.04 1.9741 1.8373 1.078 1.4324 1.5358 1.8343 1.0804 1.6988 1.235 1.4776 1.4847 1.559 1.3908 0.94541 2.0757 1.7957 1.1208 1.2944 1.6892 2.2529 0.61005 1.5929 1.3497 0.99893 2.0216 1.4413 1.5263 1.8569 1.0554 1.6637 1.2766 1.3135 1.6684 1.6411 1.3034 1.8373 1.0804 0.89842 2.1382 1.5852 1.3676 1.6988 1.232 2.087 0.80033 1.364 1.6173 1.8551 1.0643 1.6583 1.2867 1.2974 1.6988 0.91986 1.9211 0.92338 1.6887 0.56369 1.983 1.015 1.8004 0.38172 2.0555 0.90079 1.8456 1.0227 1.7939 0.97575 1.8147 1.2938 1.6898-0.1534 2.2684 0.83657 1.8736 0.88238 1.8534 1.1827 1.735-0.0328 2.2226 1.9027 1.4449 0.64992 1.9503 0.37102 2.0621 1.0732 1.7772 0.58388 1.9764-0.0171 2.2184 1.6214 1.5596-0.0732 2.2452 1.38 1.6381-1.8046 0.97098-2.1845 0.16351-1.5686 1.5555-1.8611 0.89962-1.8528 0.91568-2.2618-0.009-1.6768 1.3123-2.074 0.41918-1.9491 0.69746-1.7131 1.232-2.0115 0.5601-1.81 1.0114-1.5585 1.5828-2.3451-0.19383-1.4698 1.7814-2.2838-0.0577-1.8492 0.91686-1.6946 1.2707-1.9194 0.7688-1.8724 0.86871-1.5697 1.5572-2.4474-0.42514-1.8492 0.92936-1.5001 1.713-2.3183-0.12902-1.8004 1.0411-1.5983 1.496-1.823 0.98465-2.118 0.32405-1.7654 1.1208-1.8111 1.0186-2.2737-0.0172-1.691 1.7713-1.8878-1.2088-1.7053-1.1351-1.634-1.2463-1.5596-1.3634-1.4657-1.5132-1.7392-1.0804-2.294-0.20751-1.854-0.90021-1.1714-1.9753-1.7071-1.1297-1.7297-1.0911-2.052-0.58509-1.9806-0.70222-1.7065-1.1291-1.518-1.4324-1.6732-1.185-1.9069-0.82054-1.5477-1.3842-1.7208-1.1125-1.4585-1.5281-1.8676-0.88356-1.5448-1.3884-1.8736-0.87287-1.5234-1.4264-1.9158-0.80865-1.9538-0.75454-1.5632-0.75276-1.521 1.2754 0.0892 2.3023-1.6072 1.5935 0.18909 2.3439-1.433 1.6678-0.41979 2.0906-1.2005 1.7624-1.1612 1.782-0.57438 2.0264-1.1386 1.7915-0.18552 2.1929-0.68617 2.2-2.1506-0.90497-1.9402-0.93649-2.1881 0.21763-2.0561-0.40017-2.1388-0.01-1.8367-1.4134-2.0216-0.55476-2.1495 0.0244-2.1946 0.23962-2.0793-0.2967-2.0062-0.64097-2.0424-0.47152-2.0585-0.38529-1.8076-1.5572-2.162 0.0803-2.1435-0.009-1.939-0.96979-1.5489-0.5821 0.67545-1.5002-0.40729-2.3469 0.49529-2.0478 1.0292-1.8724 0.80865-1.9449 1.3218-1.7719-0.12666-2.2511 0.74801-1.9657 1.3034-1.7796-0.15044-2.2618 0.55298-2.0288 1.248-1.801 0.24438-2.1316 0.76584-1.9598 0.82411-1.942 1.2261-1.8094 0.10049-2.178 1.125-1.8426 0.43763-2.0698 0.198-2.1495 0.67844-1.9943 0.7694-2.03 2.2256-0.19443 2.1655-0.18076 1.9402-1.3985 2.1501-0.2759 2.1917-0.0506 2.2547 0.286 2.0817-0.6374 2.178-0.12546 1.955-1.3248 2.1001-0.56606 2.269 0.25568 1.3307-1.5977 1.0929-1.7969 1.4288-1.4811 1.6916-1.2344 0.99059-1.8926 2.3475-0.62315 1.1749-1.7196 0.76643-2.1019 2.1429-0.814 0.66594-2.1976 1.48-1.4336 1.9592-0.98643 0.76405-2.1061 1.694-1.2344 1.2671-1.6286 2.1512-0.80092 1.1868-1.7095 1.1018-1.7886 0.95373-1.9241 1.4389-1.4728 2.2006-0.76168 0.91151-1.9663 1.1702-1.7273 2.2993-0.66832 0.79557-2.0793 1.204-1.6946 2.09-0.86692 0.56546-2.2957 2.1072-0.84551 1.5251-1.3943 1.3991-1.5156 1.3991-1.5162 0.96147-1.9271 1.166-1.8617 1.8486-0.29552z" fill="#66a851"/>
   <path id="path3364" d="m646.79 691.56 1.3266 0.0808 2.3106 0.21761 1.3283 1.7636 1.8248 0.98168 2.0597 0.61302 1.3254 1.7689 1.9687 0.75691 1.6405 1.273 1.9663 0.75989 1.8545 0.93292 1.675 1.2136 1.7428 1.1095 1.2516 1.8878 1.9348 0.80567 1.5311 1.4478 2.3029 0.22774 1.7737 1.0661 1.2921 1.8236 1.6488 1.2623 1.986 0.73314 1.829 0.98048 1.5454 1.4229 1.81 1.0102 1.9693 0.7593 1.2118 1.955 1.7677 1.084 2.0496 0.99714 1.757-1.5882 2.0056-0.55773 1.7041-1.2338 1.8248-0.96205 2.0472-0.46082 2.2232-0.066 1.7832-1.0566 1.9699-0.63622 1.7731-1.0816 2.049-0.45724 1.823-0.96919 1.7689-1.0899 1.7904-1.0435 1.65-1.3551 2.2803 0.0707 1.8498-0.90438 1.8308-0.95136 1.6988-1.2451 2.2315-0.0494 1.3848-1.9556 1.9342-0.72124 2.0549-0.44595 1.7493-1.1392 1.9634-0.65643 2.2262-0.0643 1.5085-1.678 2.2517-0.007 1.6167-1.4395 1.8183-0.98644 2.1864-0.16411 1.4728-1.4556-0.83961-1.7677-0.85679-1.8992 0.082-2.2761-1.2576-1.7338-0.35138-2.0995-0.63565-1.9883-1.1761-1.7683-0.49589-2.0442-0.95316-1.8593-1.5335-1.6286 0.26937-2.3516-1.7345-1.5465 0.13025-2.2981-0.85922-1.8997-1.2171-1.7535-0.70756-1.961-0.80985-1.9199-1.5085-1.6399 0.50241-2.4515-0.93532-2.0163-2.2547-0.74324-0.82649-2.1495-1.6773-1.1939-2.0074-0.82054-1.6357-1.238-1.1559-1.779-1.735-1.1285-1.6601-1.2118-0.90673-2.0597-2.1822-0.62611-1.4895-1.4032-1.4966-1.3902-1.4086-1.4895-1.3194-1.5959-1.2017-1.7273-1.54-1.3438-2.2286-0.572-1.6845-1.1862-0.83778-2.137-1.5043-1.3902-1.5323-1.3563-1.9336-0.90854-1.8409-1.0102-1.5043-1.3908-1.2683-1.6577-1.4585-1.4371-1.7487-1.1149-1.3063-1.6161-1.5198-1.3753-1.1946-1.7434-1.7035-1.1749-1.7071-1.7618-1.6137 1.8878-1.7172 1.2653-1.1832 1.7654-1.1363 1.8117-1.1731 1.7755-2.2095 0.80509-0.72718 2.1935-2.0692 0.93768-0.64812 2.2678-1.9312 1.0667-1.1297 1.8177-1.7481 1.238-1.7124 1.2647-1.2492 1.7005-1.6982 1.2849-0.94303 1.9919-1.2243 1.7249-1.7998 1.1886-1.8034 1.1886-0.94006 1.9931-1.4032 1.5632-1.1107 1.8355-2.1608 0.85562-1.5186 1.455-1.0863 1.8605-0.92578 2.0121-1.3236 1.6334-1.5828 1.3955-1.458 1.515-1.3937 1.5757-2.269 0.75632-1.0483 1.9045-1.1149 1.842-1.8742 0.44417-2.0567-0.0725-1.9669 0.40135-1.7695 1.4698-1.9437 0.53633-2.0466-0.0172-2.002 0.21049-2.1031-0.32048-1.8248 1.1791-1.9931 0.27411-2.1031-0.30027-1.6512 1.1202-0.43881 1.8391-1.2362 1.766-0.23308 2.0977-0.75335 1.9223-0.81163 1.9039-1.2148 1.7743-0.0886 2.1429-1.1137 1.8076-0.42514 2.0335-0.18669 2.1138-0.66536 1.955-0.72065 1.9378-0.86752 1.8902-0.85443 1.8944 0.32168 2.2803-0.76287 1.9241-0.98108 1.8528-1.3063 1.7463-0.41503 2.0442-0.86395 2.2952 2.6162-0.23666 2.1251 0.28362 1.9497 1.1066 2.1156 0.33178 2.1828 0.0327 2.084 0.48222 2.0086 0.836 2.2137-0.10405 1.8195 1.7112 2.1572 0.1427 2.2779-0.40373 1.8795 1.4383 2.3082-0.53929 2.0751 0.55238 2.1298 1.1684 0.11892-2.3915 1.1565-1.7505 0.61957-1.9758 1.738-1.5097 0.51551-2.0204 0.40731-2.0626 0.22297-2.1417 0.83482-1.8867 1.7963-1.4871 0.16886-2.1685 0.49471-2.0329 2.5199-0.8027 0.67248-0.0398zm46.716 33.965-1.3271-0.0808-2.3154-0.22059-1.3355-1.7683-1.832-0.98643-2.0656-0.616-1.3325-1.7737-1.9741-0.76108-1.6476-1.2772-1.9711-0.76287-1.8599-0.9359-1.6821-1.2189-1.7511-1.1143-1.2564-1.8908-1.9431-0.81103-1.5364-1.4514-2.3106-0.23249-1.779-1.0697-1.2998-1.8278-1.656-1.2671-1.9925-0.7373-1.8332-0.98286-1.5537-1.4288-1.8165-1.0138-1.9758-0.76406-1.2213-1.9604-2.3011-1.1511-1.0102 2.423-0.10643 2.3023-1.1137 1.8837-0.43108 2.1685-0.704 2.0514-1.2112 1.8427-1.6096 1.6768-0.61005 2.0942-1.0364 1.9206-0.58627 2.1084-1.3813 0.93113-1.4984 0.34189-2.1061-0.17006-2.0959-0.21999-2.1649 0.11356-1.8379-1.4092-2.0609-0.36805-2.074-0.31871-2.1411-0.004-1.8658-1.2831-2.3064 0.75514-2.021-0.56546-1.9586-0.85919-2.1191-0.11892-2.0044-0.63443-1.87-1.2683-2.244 0.45844-1.8575-1.3295-2.1923 0.20157-2.0876-0.28421-1.3432-1.8171-0.93174-2.0948 0.59282-2.0151 0.57675-2.0216 1.5364-1.7047 0.16411-2.1578 1.0929-1.851 0.80153-1.9437 0.24734-2.1281 0.9466-1.8997 0.47627-2.0525-0.11594-2.2506 1.7285-1.6405-0.32168-2.3195 1.587-1.688 0.57438-2.0234 0.2081-2.1453 0.73017-1.9729 0.62433-2.0056-0.0886-2.2428 1.9693-1.5644 0.56427-2.0288-0.24914-2.3005 1.6637-1.669 1.6482-1.6928 1.911-1.0875 2.0115-0.53811 2.1453 0.17362 1.9866-0.68378 2.0068-0.57379 2.2125 0.54287 1.8635-1.345 2.0543-0.32168 2.052-0.33534 2.0793-0.20574 2.1614-0.0898 1.8367-1.2255 1.4145-1.5388 0.66-2.2452 1.26-1.6851 2.1893-0.81639 1.4586-1.499 1.4258-1.5293 0.98762-1.9402 1.0887-1.8468 1.4585-1.499 1.719-1.2558 1.5067-1.455 1.1898-1.7511 1.675-1.2915 1.4407-1.5115 1.8016-1.1785 1.2439-1.7 1.6797-1.2897 1.235-1.7077 1.7142-1.2623 1.1791-1.7606 1.1321-1.8076 1.169-1.7713 2.2071-0.80212 0.72362-2.1899 2.0656-0.93411 0.64573-2.2648 1.9259-1.0608 1.1256-1.8135 1.7457-1.2356 1.7142-1.2665 1.2498-1.7011 1.6994-1.2861 0.94363-1.9925 1.977-1.2035 1.936 1.1785 1.226 1.7642 2.0103 0.88177 1.5906 1.3551 1.8575 1.0572 0.9026 2.1298 1.4853 1.4728 1.8801 1.0304 2.027 0.86574 1.6613 1.2754 1.4282 1.5388 1.5436 1.4104 1.6012 1.3438 0.80271 2.2369 1.9152 0.98524 1.8581 1.0554 1.2046 1.7897 1.2635 1.7208 1.5846 1.3616 2.3088 0.5506 1.6762 1.2593 1.3034 1.6815 1.4574 1.5073 1.0988 1.9128 2.112 0.77179 1.5008 1.4603 1.113 1.8986 2.1269 0.75097 1.6369 1.3063 1.1523 1.8546 1.8551 1.0655 1.4906 1.4752 1.452 1.524 1.1714 1.8403 1.1476 0.63681 0.30861 2.0841 0.98165 1.8147 1.2147 1.7202 0.74686 1.9086 0.69211 1.9295 0.54879 1.9848 0.56192 1.9812 1.7112 1.5216 0.65172 1.9449 0.43876 2.0335 0.12135 2.1596 0.99417 1.8105 0.50954 2.0044 1.6417 1.5501 0.92638 1.8391 0.14447 2.153 0.87938 1.8551 1.1648 1.7428 0.73731 1.9152 0.40194 2.0502 1.2962 1.6946-0.42749 2.3873 0.2913 1.8016-0.98046 2.1804-2.2951-0.085-1.4752 1.7648-1.9277 0.74503-2.1952 0.14687-1.5299 1.6423-2.0466 0.47687-1.8111 1.0096-2.3028-0.0981-1.7654 1.1131-1.7184 1.2189-1.6375 1.4032-1.9057 0.79675-2.329-0.15518-1.6131 1.4574-1.7559 1.1357-2.3825-0.28065-1.5448 1.6042-1.7737 1.0917-2.2672-0.0155-1.4181 1.8932-2.2779-0.0398-1.9532 0.68973-1.8837 0.85146-1.8825 0.85087-1.6399 1.4003-1.7172 1.2284-1.955 0.69271-2.2392 0.0452-1.8872 0.84432-2.0086 0.5726-1.6869 1.2986-1.6167 1.4651-2.134 0.29908-1.1416-0.40314z" fill="#232323"/>
   <path id="path3368" d="m611.46 733.98 1.81-0.56309 2.0198-0.27946 1.5334-1.8569 2.1988 0.2967 1.9497-0.51135 1.6839-1.3753 1.9247-0.5946 1.9449-0.52086 2.1477 0.12367 1.7903-1.0292 1.9194-0.61482 2.0175-0.30918 1.9972-0.99357-0.47686 2.3011 1.1422 1.936-0.19563 2.0882 0.89071 1.9657-0.64692 2.1388 0.5506 2.0044 0.81221 1.9746-0.57498 2.1316 0.43049 2.0175 0.5833 2.0014-0.30265 2.0983 0.33119 2.0294 0.39065 2.0198 0.77536 1.9794 0.0607 2.0585-0.58211 2.1334 0.95372 1.9586-0.32048 2.1031-0.0714 2.0763 0.57319 2.0032 0.0232 2.0632-0.10346 2.0799 1.449 1.9051 0.31989 2.0323-0.16886 2.0912-0.1207 2.0442-0.3419 2.1292-1.2837 1.6607-1.8207 1.367-0.95314 1.8426-0.5167 2.0823-0.29611 2.203-1.9984 1.2706-0.28897 2.2054-1.5228 1.5317-1.1339 1.7463-0.63741 2.0163-1.4728 1.5584-1.0614 1.7844 0.12725 2.4355-1.04 1.7963-1.0031 1.8165-0.92875 1.8581-1.8956 1.3283-0.44119 2.1251-1.3914 1.6042-1.0661 1.7832-0.23487 2.2357-1.6988 1.433-1.2974 1.6548-0.48697 2.0995-1.4163 1.5894-0.6499 2.0115-1.6072 1.4859-0.18789 2.2648-0.89844 1.8748-1.1309 1.7487-1.672 1.4538-0.60886 2.0359-1.2611 1.6756-0.93767 1.8551-0.42158 2.1382-1.4092 1.5983-0.56249 2.065-0.83124 2.1495-2.4408-0.00047-1.9318 0.63978-1.8415 0.84968-1.6161 1.3706-1.6708 1.2403-1.8331 0.87465-2.2178-0.008-1.6316 1.3384-1.7487 1.0661-2.2339-0.0405-1.6274 1.3491-2.1061 0.25449-1.6589 1.2706-2.0977 0.27351-1.9253 0.66774-1.7416 1.0905-1.5691 1.4906-2.0609 0.006-1.1155-1.3028-1.1761-1.7428-2.0097-0.97096-1.4134-1.5109-1.1309-1.8266-1.3283-1.678-1.8635-1.0495-1.6922-1.3349-2.2987 0.22535-1.958-0.38292-2.0918 0.007-1.9824 0.61125-1.9568 0.68437-1.9592 0.64277-2.162-0.1879-1.7297 1.5686-2.2048-0.32465-1.8004 1.2558-2.0192 0.4079-2.2167-0.32347-1.8974 0.87228-1.9776 0.57021-1.9467 0.68319-2.1964-0.21524-1.8646 0.96622-2.0906 0.16767-1.9675 0.6166-1.697 1.5697-2.1899-0.1665-1.8385 1.0614-2.0918 0.18194-1.7933 1.2142-2.0192 0.43347-1.9205 0.7688-2.1001 0.15341-1.9907 0.52681-2.0864 0.20811-2.0751 0.24616-1.7927 1.194-1.7886 1.2064-2.3278-0.60232-1.8254 1.0762-2.0299 0.39481-1.958 0.81043-1.6244 1.2802-1.1381 1.7832-1.2457 1.666-2.1447 0.68143-1.5751 1.2997-1.3093 1.5954-1.1571 1.7665-1.9663 0.8782-1.3349 1.5721-1.2272 1.6946-1.8694 0.56133-1.543-0.70162-1.908-0.65467-1.7172-1.0102-1.6423-1.1536-1.8468-0.7694-1.6928-1.0614-1.9687-0.53513-1.5014-1.421-1.8046-0.85089-2.1114-0.27113-1.6197-1.2077-1.8831-0.96265 0.76703-2.1405 0.55535-2.0508-0.28303-2.1471 0.27886-2.0805-0.30443-2.1495 0.27709-2.0805 0.10346-2.1031 0.3068-2.0781 0.4293-2.0662 0.5839-2.0478-0.28244-2.1477 0.2872-2.0829 0.85918-2.018 0.39601-2.0686 0.34307-2.0769 0.22893-2.09 0.35854-2.0758-0.16589-2.1393-0.41384-1.7487-1.6369 0.24438-2.0615 0.2533-2.0876-0.16708-2.0561 0.37995-2.1465-1.1161-2.0294 0.7813-2.0609 0.2646-2.0353 0.67248-2.0864-0.15281-2.1037-0.43703-2.0734 0.0999-2.0567 0.36983-2.0567 0.35081-2.0864-0.14924-2.1096-0.52978-1.9978 1.3206-2.0716 0.13498-2.0948-0.25389-2.1102-0.52919-2.002 1.2522-2.0989-0.33416-2.1233-0.70162-2.0389 0.65465-2.0436 0.57794-2.1245-0.74265-2.0508 0.48877-2.0763 0.0428-2.068 0.19027-2.024 0.92816-2.0846-0.085-2.0728 0.12487-2.071 0.14508-2.1328-0.86157-1.9984 1.3468-2.0698 0.1754-2.1358-0.94957-2.0918-0.18907-2.0496 0.46616-2.0412 0.6487-2.0942-0.24795-2.0502 0.51254-2.1287-0.79437-2.0181 1.0358-2.1108-0.48222-2.0817 0.0107-2.0466 0.54049-2.0597 0.36925-2.0478 0.55773-2.1524-1.1458-2.0341 0.85146-1.7731-0.45487-1.0043-1.4425-1.0875-1.7879-0.76822-1.9693-1.9318-1.3028-0.22833-2.2815-1.9556-1.2897-1.1737-1.7386 0.0541-2.4462-2.0234-1.2516-1.1743-1.7398-0.45487-2.1512-1.2463-1.6988-0.73433-1.9937-1.2564-1.694-0.84255-1.9354-1.4562-1.8415 2.1798-0.67189 1.9628-0.59579 1.9937-0.51135 1.7582-1.1874 2.1994 0.0749 1.7642-1.1654 2.1935 0.0582 1.845-0.94006 1.8528-0.9133 2.1192-0.15579 1.6131-1.5995 1.854-0.9121 2.0335-0.40255 1.8159-1.0203 2.1566-0.0518 1.92-0.72541 1.983-0.53395 1.7493-1.2058 2.0436-0.3746 1.8623-0.88357 2.1952 0.0583 1.6934-1.3688 2.0799-0.27351 2.0145-0.45606 1.8206-1.0114 1.8849-0.83184 1.9354-0.68675 1.9467-0.64751 2.0662-0.31395 1.6221-1.5828 2.2476 0.20157 1.7624-1.1928 2.0722-0.085 2.0246-0.17719 2.0745 0.55892 2.0965-0.19146 2.1073-0.5494 2.0793 0.34842 2.0853 0.18374 2.0793 0.41443 2.0894 0.0761 2.0841 0.21643 2.1102-0.61778 2.1096-0.57617 2.0561 1.1922 2.1227-0.9906 2.0698 0.67605 2.1108-0.59459 2.0662 0.8473 2.1114-0.62908 2.096-0.12189 2.0656 0.89248 2.1126-0.66892 2.0758 0.57438 2.0674 0.7932 2.1304-1.191 2.0638 0.92758 2.1102-0.53871 2.0983-0.24913 2.0472 1.4692 2.1239-1.0697 2.0603 1.0637 2.115-0.74741 2.0632 0.98644 2.1286-1.1375 2.065 0.91866 2.0805 0.4507 2.1013-0.22476 2.112-0.63265 2.0799 0.4834 2.0757 0.60174 2.1292-1.0905 2.0948 0.13676 2.0502 0.38291 1.4163-1.5204 1.2409-1.7499 2.178-0.80747 1.2415-1.7535 1.2772-1.7154 1.8801-1.1071 1.2605-1.738 2.074-0.91152 1.0661-1.9342 1.8629-1.1268 1.26-1.7398 1.0602-1.9402 1.6964-1.2974 1.1166-1.886 2.4087-0.57141 1.2629-1.735 1.5293-1.4692 1.2403-1.7618 1.8837-1.1113 1.5257-1.4794 1.1821-2.1049 1.3741 1.81 1.3735 1.5329 1.3741 1.5364 1.5555 1.361 1.672 1.2534 0.68319 2.1899 2.0008 0.94303 1.7874 1.144 0.55001 2.3183 2.2928 0.66713 1.0851 1.8058 1.0691 1.8254 1.6857 1.2439 1.2088 1.6964 1.3212 1.5906 1.3842 1.5352 1.8302 0.56309 1.7915-0.12249 2.0644-0.49054 1.8355-1.0286 1.7529-1.2207 1.7671-1.1874 2.1774-0.22714 2.005-0.62908 1.9741-0.70519 1.8754-0.93471 1.8326-1.0358 1.9396-0.78546 1.9081-0.84967 2.0121-0.61006 1.9467-0.76762 1.8468-0.99774 1.6583-1.4466 2.4075 0.31513 1.6411-1.4889 2.0579-0.50659 1.656-1.4544 2.2523-0.0559 1.8147-1.0828 2.0746-0.46676 1.8783-0.93292 1.7523-1.2314 1.7172-1.3129 2.2494-0.0732 1.5507-1.3486 0.92221-1.6898 2.2172-0.9674 0.98704-1.8207 0.75513-1.9854 0.72184-2.005 2.0109-1.1149 0.41324-2.2202 2.0579-1.0834 1.0548-1.7766 1.1392-1.7196 1.5263-1.452 0.74384-1.9949 1.2439-1.6446 0.99476-1.8212 1.4526-1.5031 1.1648-1.7041 1.2855-1.5715 0.98822-1.7434z" fill="#66a851"/>
   <path id="path3372" d="m451.43 873.56 1.9194 1.0667 1.6036 1.2237 2.3772-0.23372 1.3218 1.7577 1.7154 1.0084 2.1411 0.21224 1.7588 0.93293 1.7225 1.0019 1.4098 1.5995 1.9318 0.52623 1.4586-1.3735 1.7148-1.1542 1.2112-1.707 2.0573-0.77301 0.89249-2.0548 1.801-1.062 1.0649-1.8688 2.1072-0.72659 1.2986-1.6197 1.1208-1.8135 1.5697 0.0167 1.87-0.77535 1.8272-0.92043 2.0823-0.0648 1.9009-0.67367 1.8855-0.72958 1.7761-1.0994 1.9812-0.4079 2.1631 0.21466 1.7285-1.2671 2.0906-0.0351 2.0181-0.27291 1.8385-0.89368 1.9943-0.36092 2.0311-0.23605 1.5995-1.7362 1.9164-0.64157 2.052-0.16649 2.0846-0.22 1.7903-1.2611 2.0775-0.23962 2.2404 0.35437 1.9794-0.59577 1.8486-1.0715 1.785-1.3099 2.2898 0.57022 1.7909-1.3063 2.1506 0.0601 2.0365-0.35974 1.9015-0.89783 2.1316 0.0398 2.0204-0.39898 1.7338-1.7011 2.0424-0.3746 2.0502-0.36745 2.0793-0.35676 2.046 1.0738 2.1328 0.0607 1.5983 1.3818 1.6322 1.2189 2.1536 0.60946 1.0156 1.9711 1.235 1.6637 1.845 1.0625 1.034 1.8325 1.6476 1.2814 2.1899-0.19681 1.5418-1.6809 1.8641-0.93649 1.9729-0.69567 2.2184-0.13022 1.7344-1.2421 2.0317-0.55833 1.8843-0.89844 1.65-1.4371 2.1007-0.40611 1.7107-1.2915 1.7784-1.1434 2.3189 0.0921 1.9883-0.66536 1.9003-0.87465 1.6494-1.3806 0.57081-2.0258 0.93828-1.8546 1.7838-1.3931 0.4959-2.0995 0.75573-1.9574 1.8153-1.3759 0.48459-2.1037 1.5335-1.5311 0.56011-2.065 1.5156-1.5412 1.1375-1.7469 0.73373-1.9693 0.3514-2.1792 1.7398-1.4181 0.81282-1.9259 1.2338-1.697 0.28124-2.2166 1.0382-1.8034 1.4704-1.5668 1.3384-1.6393 0.72838-1.9711 1.2053-1.7083 0.0815-2.3243 1.4146-1.5983 1.2849-1.6661 0.81282-1.9277 0.77951-1.9443 0.83838-1.9146 1.6042-1.4936 0.0297-2.3564 1.7523-1.4151 0.33-2.1935 1.1036-1.7671 1.7749-1.4027 0.69448-1.9943 0.97336-1.8415 0.87644-1.8991 1.7659-1.6381-0.64632-2.184 0.17243-2.074-0.28659-2.021-1.2683-1.911 0.52741-2.1138-0.73789-1.9711 0.17243-2.0734-0.89249-1.9538-0.0827-2.043-0.42752-2.0062 0.21108-2.0757-0.17362-2.0347 0.15935-2.0716 0.12071-2.0686-0.85979-1.9574-0.87108-1.9568 1.0061-2.1691-0.73314-1.9735-0.0231-2.0508-0.42811-2.0074-0.0832-2.0472-0.77714-1.9687-0.61897-1.9901 0.55713-2.3718-2.3552 0.51492-1.9848 0.92578-1.9182 1.1446-2.2731-0.004-1.9931 0.89308-1.9479 1.0483-2.3498-0.25032-2.0157 0.83184-1.9842 0.94481-2.1286 0.57082-1.433 1.6203-1.0566 1.8498-1.3283 1.6631-0.83957 1.9996-1.6643 1.4312-1.1321 1.7986-0.59461 2.1732-1.4633 1.5697-1.1535 1.7856-1.6649 1.433-1.4722 1.5656-0.77773 2.0448-1.2439 1.7243-0.76109 2.0585-1.2433 1.7261-1.1006 1.8284-1.2689 1.7118-1.4865 0.97335-2.0591 0.49947-1.7184 1.3028-1.9437 0.77535-2.1685 0.24438-1.986 0.67427-1.9657 0.72362-1.92 0.82887-1.9723 0.70876-1.7642 1.1951-1.6108 1.5578-1.9461 0.7688-1.8718 0.93591-2.0377 0.5494-1.8254 1.0542-2.4099-0.32583-1.6678 1.424-1.8694 0.94779-1.7112 1.3248-2.0341 0.56308-2.1465 0.30146-1.9372 0.79617-1.8302 1.0459-1.8361 1.0269-2.0341 0.56783-2.1846 0.21585-1.4579 1.9223-1.9265 0.83066-2.0793 0.4721-1.6898-0.4608-2.0763 0.0755-1.1375-1.8682-0.86811-2.1197-1.8563-1.1868-1.7998-1.2385-0.84075-2.1506-1.735-1.3004-1.4116-1.609-1.5198-1.5079-2.052-0.99596-1.3188-1.6964-1.4722-1.5537-1.4871-1.54-0.75572-2.2339-2.3635-0.71411-1.0162-1.2986-1.7017 0.48401-1.6976 1.2338-1.235 1.7011-1.106 1.8296-1.738 1.1922-1.204 1.7356-2.1233 0.80269-0.83601 2.1078-1.9045 1.0257-1.5578 1.3789-1.1844 1.7547-1.3057 1.6339-1.1737 1.7689-2.3701 0.55179-0.96621 1.9764-1.9408 0.99297-1.3046 1.6381-1.4425 1.4984-1.7035 1.2391-0.7605 2.1935-2.3558-0.003-2.109 0.98643-2.0811 0.0862-2.0365-1.3313-2.1102 1.0649-2.0793 0.085-2.0549-0.74265-2.0841 0.16827-2.0656-0.42217-2.0835 0.17898-2.0686-0.29909-2.0906 0.38233-2.0716-0.26222-2.074-0.15162-2.0704-0.2414-2.0942 0.47329-2.0526-0.86275-2.093 0.45129-2.0526-0.84551-2.0864 0.21168-2.0846 0.18372-2.0609-0.61837-2.1078 0.91033-2.0858 0.18194-2.0686-0.35735-2.0894 0.2967-2.0549-0.72897-2.0793-0.0155-2.071-0.21702-2.0954 0.49351-2.0668-0.38708-2.0858 0.15281-2.0531-0.84552-2.1013 0.66595-2.0662-0.4947-2.0722-0.30087-2.0876 0.2866-2.0846 0.0963-2.0799-0.0565-2.0793-0.0981-2.0716-0.4519-2.0032 0.88417-2.1388-0.22892-1.7594 1.1922-2.1405 0.10167-1.8557 0.91211-2.1019 0.21346-1.854 0.92222-1.7344 1.2594-2.0317 0.41265-1.9788 0.56784-2.0537 0.34963-1.9425 0.66951-1.9883 0.53752-1.713 1.3248-1.7267 1.2849-2.3088-0.3853-1.5876 1.6762-2.1417 0.10286-1.719 1.3022-2.1982-0.0582-1.7083 1.3349-1.8783 0.8574-2.2125-0.10167-1.697 1.3735-2.1096 0.19979-2.1816-0.006-1.5228 1.8652-2.2262-0.13319-1.741 1.251-1.8373 0.97692-2.4093-0.64335-1.3117 1.5037 0.10941 1.876 1.71 1.3414 0.20514 2.2059 2.049 1.1476 0.2646 2.1726 0.6713 1.9396 1.2576 1.6036 1.6108 1.4003 0.64217 1.955 0.53988 2.0157 2.008 1.1725 0.94482 1.7844 0.73789 1.9069 1.0072 1.647 1.9622-0.5167 2.134 0.82946 2.0543-0.49945 2.0573-0.44774 2.1072 0.40789 2.0537-0.47508 2.1233 0.6832 2.0371-0.75158 2.1061 0.38174 2.0561-0.47687 2.0389-0.75871 2.0924 0.14331 2.0418-0.68142 2.153 1.1589 2.0555-0.47151 2.0799-0.0957 2.0537-0.506 2.109 0.40729 2.0769-0.10583 2.0317-0.87108 2.0989 0.20929 2.0805-0.0678 2.0805-0.066 2.0662-0.31752 2.0567-0.47567 2.1382 0.88298 2.0294-0.92698 2.0472-0.63444 2.1501 1.0685 2.0056-1.3289 2.1055 0.32881 2.1078 0.35379 2.0555-0.49233 2.0965 0.16351 2.0841 0.0101 2.0817-0.0744 2.0115-1.1898 2.1215 0.58449 2.0995 0.2307 2.065-0.35259 2.052-0.56248 2.0549-0.52444 2.1191 0.51611 2.0924 0.0803 2.0852-0.002 2.0722-0.25151 2.0656-0.36092 2.0835-0.0892 2.0817-0.15994 2.0977 0.0999 2.1043 0.88476 0.90795 2.1637 0.43703 2.1721-1.4645 1.9544 0.48221 2.175-0.57794 2.0561 0.44535 2.1709-1.0661 1.9996 0.044 2.1263-0.62076 2.052-0.11832 2.1078 0.20335 2.1465 0.29195 2.1566-1.0489 2.0038 0.40908 2.1679-0.0571 2.1174-1.5037 1.9515-0.0155 2.1227 0.26399 2.1697-0.72362 2.2291zm18.353 15.193-1.194-0.27474-1.6036-1.2237-2.3778 0.23372-1.3218-1.7576-1.7178-1.0102-2.1423-0.21223-1.76-0.93414-1.722-1.0014-1.4074-1.5982-1.9729-0.53271-1.7701-0.91571-1.6226-1.2016-1.9729-0.54115-0.57794-1.682-1.1624-1.4401 0.65584-1.9646-0.4293-2.0858 1.1066-1.911-0.0892-2.0508-0.35141-2.0781 1.0358-1.9211 0.0303-2.0359-0.12249-2.0549 0.76286-1.9526 0.13023-2.0258 0.0702-2.0335-0.31455-2.0781 0.40016-1.9931 1.0429-1.9223-0.49174-2.0983 0.78071-1.9532 0.53335-1.9842-0.154-2.1822-2.2143-0.12664-2.1066-0.2093-2.0109 1.3509-2.0787 0.21643-2.1072-0.2753-2.1049-0.22891-2.0395 0.85324-2.1043-0.20216-2.1429-0.81341-2.0829 0.17481-2.052 0.6713-2.0359 0.92222-2.153-1.015-2.0365 0.92994-2.1227-0.4739-2.0954-0.0297-2.0603 0.53394-2.118-0.4168-2.0906 0.0518-2.0097 1.4044-2.0888 0.0761-2.0858 0.11832-2.0811 0.20335-2.1495-0.89725-2.0472 0.75752-2.1138-0.32287-2.0918 0.0469-2.0341 0.99178-2.1358-0.67487-2.1072-0.21703-2.052 0.70579-2.1162-0.3526-2.0632 0.52087-2.1269-0.56903-2.0317 1.0471-2.0781 0.23724-2.0966-0.0262-2.1322-0.64097-2.0615 0.56843-2.1049-0.1754-2.0841 0.19442-2.049 0.7813-2.1168-0.34189-2.0561 0.62314-2.0686 0.4614-2.15-0.88535-2.1013-0.0601-2.09 0.16709-2.0561 0.73432-1.8082 0.0612-1.4062-1.2772-0.26459-2.2589-1.54-1.5281-1.2814-1.6744-0.23485-2.2785-1.5495-1.5216-0.51372-2.1191-1.4764-1.5644-0.53217-2.1084-0.90557-1.895-1.3057-1.6649-1.6815-1.4455-0.31097-2.2369-1.2272-1.7101-0.81162-1.9497-1.7547-1.411-1.0066-1.8415 0.28243-2.4812 1.713-1.1898 1.8326-0.968 2.0133-0.45367 1.5894-1.6637 2.0936-0.2313 2.0436-0.36925 1.8646-0.87821 1.8528-0.91331 1.876-0.85205 2.1637-0.0268 1.5703-1.7208 2.2202 0.13141 1.6833-1.3985 1.9758-0.56546 2.2285 0.15579 1.8212-1.0072 1.9265-0.70697 1.8861-0.81222 2.197 0.0714 1.7945-1.084 2.068-0.2967 1.9176-0.73433 1.59-1.6655 2.1893 0.0393 1.7665-1.163 2.071-0.2973 1.7172-1.3099 1.9865-0.54049 1.87-0.86751 2.0841-0.26222 1.9568-0.62671 2.068-0.31097 2.0585-0.34843 1.732-1.2802 1.0382-0.80271 2.021 1.3063 2.0757-0.44238 2.052 0.27053 2.0638-0.13497 2.0537 0.21049 2.0757-0.48638 2.0722-0.32762 2.0306 1.0049 2.0555 0.1641 2.068-0.23248 2.0757-0.46141 2.0401 0.73967 2.0674-0.19919 2.0728-0.36092 2.0306 0.99834 2.0668-0.13379 2.0692-0.25091 2.0573 0.1528 2.0531 0.31454 2.0656-0.1207 2.0567 0.20871 2.074-0.38411 2.0436 0.61659 2.0638-0.0291 2.0847-0.68438 2.0484 0.37281 2.0633-0.005 2.0412 0.61659 2.0508 0.38293 2.0763-0.46082 2.0609 0.10466 2.0775-0.48222 2.0603 0.10286 2.0662-0.072 2.0603 0.132 2.0543 0.25626 2.0514 0.41147 2.0793-0.46081 2.0615 0.11297 2.0466 0.68854 2.2386 0.19205 1.6857-1.468 1.4538-1.4514 1.5477-1.361 1.1755-1.7368 0.89783-2.0151 1.5014-1.4068 1.3747-1.5382 1.6684-1.238 1.2855-1.6286 2.338-0.56248 1.0031-1.9152 1.3664-1.5471 1.0792-1.8373 1.6619-1.2504 1.8581-1.0453 1.4829-1.4288 1.2932-1.6232 1.3081-1.6096 1.6595-1.2546 1.9307-0.98524 0.6273-2.3035 2.4711-1.0007 2.1667 1.3349 0.94243 1.9467 2.2386 0.72066 1.0846 1.8123 0.81875 2.068 1.804 1.1315 1.7493 1.1856 0.78843 2.0954 1.6845 1.2475 1.3604 1.5555 1.4657 1.4502 2.0026 0.94421 1.2689 1.6435 1.4211 1.4996 1.436 1.4859 0.70637 2.1828 1.9646 0.46557 1.4811-0.8146 2.3213 0.18135 2.0216-0.51789 1.7654-1.1226 1.694-1.2903 2.0454-0.46438 1.7475-1.1654 2.2606 0.0393 1.5418-1.6476 2.137-0.24735 1.9414-0.70163 1.735-1.1904 1.804-1.0334 1.7279-1.2064 2.3992 0.3633 1.6143-1.477 2.1584-0.20394 1.8022-1.037 1.8801-0.85622 2.0252-0.51848 1.4996-1.7529 2.2672 0.0559 1.4889-1.7778 1.8426-0.94837 2.398 0.35556 1.4621-1.851 1.691-0.85504 1.6506-1.2344 1.0215-1.8849 1.5097-1.5495 1.0132-1.8908 1.408-1.6209 0.8467-2.0074 1.3783-1.6423 1.2861-1.7041 1.361-1.653 0.77358-2.0621 1.8724-1.3004 0.79021-2.0472 1.8581-1.3105 0.98881-1.9128 1.012-1.8974 1.6738-1.4431 0.41682-2.3142 1.5798-1.4478 2.0091-0.31572 1.8153-0.94066 2.1203 0.0387 1.9081-0.64216 1.9687-0.4507 1.7594-1.1297 2.0198-0.28779 1.8581-0.8033 2.1554 0.15043 1.7083-1.295 2.0525-0.18492 1.9978-0.37162 1.8242-0.93352 2.4331 0.19384 1.3212 2.1316 0.1974 2.0442-0.15459 2.0829 1.1809 1.9324-0.69746 2.1453 0.7694 1.9788-0.37816 2.1096 0.47568 2.0121-0.26044 2.096 0.48579 2.0115 0.84076 1.9723-0.0511 2.0698 0.11238 2.0537-0.11713 2.0775 0.21941 2.0418 0.0803 2.0567 0.90972 1.9645 0.86752 1.9687-0.89011 2.1673 1.2802 1.9241-0.37638 2.1102 0.88594 1.9657-0.54702 2.1298 0.92103 1.9645 0.41681 2.0222-0.59222 2.1388 0.96147 1.964-0.85504 1.8302-1.6334 1.4704 0.10763 2.4212-1.7511 1.405-0.46497 2.1096-0.72005 1.9717-2.228 1.1458 0.00093 2.3647-1.8718 1.3396-0.28183 2.2101-1.8052 1.3794 0.0607 2.3974-1.7439 1.4104-1.3343 1.6357-0.74146 1.9604-0.38291 2.1554-1.3628 1.6197-1.4669 1.5638 0.0184 2.3754-1.0584 1.7868-1.2689 1.672-0.92757 1.8587-0.66892 1.9984-1.8343 1.3587-0.66654 1.999-0.71351 1.9764-1.4645 1.5632-0.68974 1.9895-1.7065 1.4318-0.44713 2.1227-1.4419 1.5775-0.68855 1.9907-0.44059 2.1274-1.2338 1.6934-0.50778 2.0876-2.1263 1.2058-0.69329 1.9889-1.0245 1.8094-0.66416 2.0091-1.4681 1.5703-1.1696 1.0447-1.559 1.4966-1.9913 0.50421-1.8813 0.7587-1.8837 0.75811-1.7808 0.98881-1.7196 1.1345-2.2642-0.11356-1.5394 1.5489-1.6554 1.2802-2.3397-0.28302-1.3789 1.9176-2.0436 0.3966-2.052 0.37341-1.7142 1.15-1.9776 0.54822-1.9164 0.68913-1.8861 0.76822-1.4377 1.7921-2.1227-0.49589-1.273-1.2177-1.5061-1.4633-1.7005-1.2701-1.7006-1.2385-0.99714-1.9235-1.3747-1.5787-1.5109-1.4544-1.7743-1.1321-1.9729-0.67308-0.13795-0.0393-2.0276 0.26519-2.0621 0.15994-2.0204 0.37936-1.9586 0.65227-1.8355 1.144-2.2916-0.70043-1.8135 1.2112-2.0746 0.1867-1.8076 1.188-2.1964-0.27529-1.9081 0.80924-2.0823 0.16886-1.9491 0.66119-1.8617 0.97693-1.8361 1.0661-2.1982-0.23011-1.801 1.185-1.9277 0.73611-2.3255-0.66-1.9158 0.78189-1.8331 1.0566-1.8212 1.097-2.2589-0.4067-1.7172 1.4627-2.2761-0.45486-1.9342 0.71767-1.9616 0.62254-2.0948 0.17244-1.8242 1.0881-1.9966 0.50482-1.9081 0.79973-2.0686 0.26757-1.964 0.60589-2.1685 0.51551-1.6399 1.232-1.2611 1.5602-0.75693 2.115-1.9913 0.76227-1.364 1.4431-1.0715 1.7689-1.9955 0.75755-1.1886 1.644-1.6007 1.1928-1.1934 1.6435-1.3325 1.4918-2.3826-0.0852z" fill="#232323"/>
   <path id="path3376" d="m372.94 914.36-1.2368-1.471-0.97931-1.8855-1.4484-1.5495-1.4294-1.5637-1.1161-1.7845-1.0191-1.8545-1.499-1.5163-0.45843-2.2535-1.2207-1.7142-2.0317-1.1369-0.69865-2.0858-1.0174-1.8587-1.9943-1.1654-1.0887-1.8099-0.91985-1.9307-0.81757-1.9996-1.3919-1.5947-1.1963-1.7333-1.9158-1.223-0.71649-2.08-1.3402-1.5507 1.6179-1.2468 1.9854-0.79255 1.9616-0.83366 1.4996-1.5692 1.5959-1.4121 1.6994-1.254 1.8938-0.94184 2.2529-0.37876 1.7671-1.144 1.2701-1.9348 1.9532-0.85325 1.7541-1.1696 1.9907-0.78962 1.3051-1.8807 2.0894-0.63801 1.9877-0.80092 1.3194-1.8652 2.0252-0.74443 2.049-0.0624 2.0567 0.59162 2.0478-0.55832 2.0567 0.48518 2.0448-0.84967 2.0555 0.39243 2.0466-0.76881 2.0561 0.48876 2.0514-0.28124 2.0597 0.8907 2.0502-0.3966 2.046-0.77594 2.0626 1.0822 2.052 0.14687 2.052-0.11655 2.043-0.98405 2.0549 0.23546 2.0496-0.2747 2.0591 0.54881 2.0567 0.46319 2.0526-0.14806 2.0549 0.0511 2.0543-0.0137 2.0502-0.27292 2.0472-0.8806 2.0537-0.12188 2.0644 1.0709 2.0537-0.5827 1.7017 0.45664 0.29551 1.7523-0.62314 2.0068 0.41622 2.1286-0.52086 2.0198-0.44654 2.0306-0.7819 1.9907 0.0707 2.0894 0.25627 2.1114-0.33475 2.0442-0.0975 2.0686-0.67843 2.0044 0.46854 2.1358-0.28303 2.0507-1.298 1.9378 0.58925 2.3332-2.1786 0.71116-2.1245-0.33475-2.1275-0.36391-1.9657 0.99655-2.0371 0.39715-2.0662 0.15399-2.0924-0.0843-1.9806 0.87283-2.112-0.25029-2.1394-0.46142-2.0508 0.27529-2.0406 0.37818-1.958 1.0566-2.1798-0.79265-2.0026 0.70162-1.9711 0.96266-2.1952-0.9371-2.0163 0.58985-2.0734 0.10529-1.9598 1.0702-2.0805 0.0815-2.0514 0.11417-1.7374 1.2004-1.2421 1.647-1.0917 1.7748-1.2552 1.637-1.2879 1.6102-1.0518 1.8099-2.1203 0.90792-1.194 1.6886-0.91508 1.9248-1.7838 1.1975-0.53691 2.2428-1.7737 1.2077-1.2546 1.3991z" fill="#66a851"/>
   <path id="path3380" d="m351.19 879.34 1.4437 1.7386 0.96206 1.8617 1.4336 1.5281 1.4151 1.5442 1.1018 1.7636 1.0055 1.8355 1.4835 1.4943 0.44535 2.235 1.2052 1.6928 2.0175 1.1166 0.68437 2.0657 1.0031 1.839 1.9782 1.1428 1.0738 1.7885 0.90438 1.9093 0.80448 1.9812 1.3789 1.5768 1.5662 1.9211 1.0875-2.3296 1.8224-1.207 1.2219-1.7119 1.1785-1.7499 1.6464-1.3568 1.6084-1.386 0.94422-1.946 1.0857-1.8278 1.2302-1.7071 1.515-1.4728 2.0264-1.0441 1.4246-0.79616 1.9324-1.1951 2.0829 0.0759 2.0389-0.29613 2.0918 0.14807 1.9402-1.1309 2.1108 0.32882 2.0906 0.13732 1.9402-1.1107 2.0989 0.20519 2.0389-0.28835 2.118 0.3603 1.9812-0.78014 2.1055 0.25511 1.9485-1.0702 2.0954 0.16232 1.9556-0.99006 2.1066 0.25872 2.0157-0.50549 2.1554 0.65763 2.0062-0.62069 1.5834-0.81162 1.1583-1.6132 0.40491-2.09 0.14212-2.1191-0.71886-2.219 0.49231-2.0805-0.0137-2.1394 0.80389-2.043 0.71827-2.0549 0.11178-2.1245 0.30979-2.1031 0.24557-2.1132-0.0815-2.3677-2.2696 0.77951-2.0526 0.12189-2.0615-1.0715-2.0484 0.5833-2.0591-0.61719-2.0472 0.67189-2.0573-0.37341-2.0478 0.67309-2.0561-0.27114-2.0555-0.19503-2.0585-0.53275-2.049 0.32524-2.0496 0.51195-2.0525-0.0827-2.0526 0.15519-2.0561-0.42811-2.049 0.72482-2.0537-0.0304-2.0632-1.0518-2.0478 0.93054-2.052 0.40314-2.0579-0.56665-2.0603-0.5952-2.0496 0.77417-2.0543 0.17064-2.0603-0.0743-2.0716-0.31157-1.4675 1.6726-2.0644 0.71351-2.1762 0.53276-1.782 1.1612-1.7261 1.2481-1.3628 1.8278-2.3564 0.25092-1.5537 1.5246-1.414 1.7475-2.4349 0.13021-1.6125 1.4282-1.8748 1.0167-1.3569 1.8391-1.8884 0.9971-1.8724 1.034-2.0722 1.0304zm21.737 37.901-0.11535 0.24492-2.0002-1.3842-1.4496-1.5513-1.4294-1.5644-1.1178-1.7856-1.0197-1.8551-1.4966-1.5132-0.45843-2.2535-1.2207-1.7143-2.0306-1.1351-0.69865-2.0858-1.0168-1.8582-1.9943-1.1654-1.0875-1.8082-0.91924-1.9301-0.81936-2.0014-1.3914-1.5946-1.1951-1.7315-1.9152-1.2225-0.71411-2.0769-1.3545-1.622-1.4032-1.5918-0.90557-1.9455-0.0993-1.9586 0.73731-1.93 1.5965-1.4122 1.6958-1.2522 1.8926-0.94122 2.2517-0.37817 1.766-1.1428 1.2695-1.9348 1.9515-0.85146 1.7529-1.169 1.9913-0.79021 1.3045-1.8801 2.0894-0.63741 1.9866-0.80093 1.3141-1.8623 2.0234-0.74265 1.7576-1.163 2.1078-0.61124 1.4966-1.584 2.0537-0.70222 1.2296-1.1957 2.0549 0.39184 2.0448-0.76881 2.0561 0.48876 2.0508-0.28065 2.0591 0.8907 2.0496-0.3966 2.0466-0.77654 2.0609 1.0828 2.0543 0.14686 2.052-0.11714 2.0448-0.98346 2.0549 0.23487 2.0514-0.27411 2.0549 0.54881 2.0573 0.46259 2.0496-0.14745 2.0537 0.0511 2.052-0.0137 2.0514-0.27291 2.0454-0.8806 2.0531-0.12249 2.0633 1.0715 2.0502-0.5827 2.0573 0.6166 2.049-0.67189 2.0579 0.37399 2.0496-0.67308 2.0615 0.27054 2.0603 0.19503 0.0238 0.5506 1.9182 0.54643 1.1369 2.0751-0.33476 2.0424-0.0975 2.0668-0.67784 2.0032 0.46854 2.1334-0.28303 2.049-1.2974 1.9318 0.67189 2.1584 0.14865 2.0989-0.81519 1.9889-0.84433 1.983 0.51671 2.1418-0.0827 2.0727-0.32643 2.0454-0.56368 2.0223 0.39184 2.131-1.345 1.7095-1.8462 0.15168-2.0954 0.28002-2.0829 0.38354-2.0026 1.0619-2.2226-0.78783-2.0448 0.70699-2.0115 0.96738-2.2398-0.93173-2.0555 0.59457-2.1162 0.11001-1.9996 1.0756-2.1197 0.0861-2.1132 0.12547-2.1667-0.31094-2.0882 0.35613-2.065 0.55179-2.0876 0.33891-2.0948 0.29734-2.0591 0.60411-2.2244-0.78431-2.0852 0.41919-2.0163 0.77478-1.8106 1.2362-0.58448 2.3005-1.8201 1.2629-1.5834 1.4627-1.3569 1.6536-1.6274 1.427-0.36092 2.4854-2.09 1.0393-1.4419 1.5828-0.74978 2.1638-1.3771 1.6417-1.4371 1.5923-2.4937 0.55235z" fill="#232323"/>
   <path id="path3384" d="m238.41 872.56-1.2617-1.0893-1.7106-1.2326-1.5644-1.3705-1.6898-1.2516-1.4157-1.5144-1.0346-1.8694-1.2314-1.6875-1.5234-1.4122-2.0555-0.90795-1.3717-1.5578-1.1137-1.8076-1.1755-1.6274 1.2582-1.6684 2.0353-0.78903 1.8349-1.0554 1.2808-1.782 1.5394-1.4443 2.1037-0.69984 1.5198-1.4675 1.4579-1.5489 2.068-0.74205 1.4437-1.5662 1.3706-1.6666 1.9984-0.836 1.8605-1.0221 1.6488-1.2986 1.3194-1.7344 2.0728-0.74205 1.26-1.8129 1.5632-1.4163 1.5751-1.3997 2.461-0.2301 1.6803-1.2617 1.3438-1.7041 1.4758-1.5323 1.7309-1.2017 1.6536-1.5882 2.1994 0.72897 2.049 0.528 2.0537 0.484 2.137-0.23367 2.0835 0.22654 2.1364-0.23249 2.0353 0.64751 2.0585 0.45071 2.0531 0.47686 2.1946-0.73908 2.0323 0.65643 2.1471-0.32524 1.958 1.3146 2.1834-0.63087 1.9735 1.1862 2.1429-0.28421 2.131-0.16708 2.0424 0.60232 2.156-0.41146 1.9705 1.2326 2.1019 0.085 2.0894 0.1986 2.1108 0.0405 1.9592 0.5173 0.65643 1.9366 1.4074 1.6108 1.1083 1.7826 0.68437 2.0299 1.7582 1.4098 1.0411 1.823 0.40195 2.197 1.0013 1.8474 1.1981 1.7356 1.0643 1.8123 1.8552 1.3539 0.0767 2.3873 1.5192 1.5507 1.2748 1.6887 0.32762 2.2416 2.046 1.2451 1.1494 1.7654 0.63978 2.0656 1.0851 1.8819-1.8397 1.3688-0.73968 2.0234-1.2528 1.6827-1.279 1.6643-1.1856 1.7273-1.0982 1.7849-0.99179 1.8563-0.63681 2.09-1.7778 1.3301-0.93589 1.8909-1.0798 1.7981-0.65228 2.0793-2.0977 1.1214-0.19443 2.3861-2.2773 1.0031-0.97395 1.8683-1.3527 1.6172-0.29135 2.3243-1.9806 1.2011-0.93233 1.8956-1.1898 1.7267-0.60173 2.1186-1.2249 1.7046-0.83362 1.9682-1.1291 1.5988-0.53335 1.911-0.0856 2.1073-0.51611 2.0585-0.67309 2.0419-0.11237 2.1054-0.61957 2.0454 0.028 2.1215 0.1326 2.134 0.31573 2.1554-0.30444 2.0882-1.0156 1.9265-1.163 1.7565-1.9289 0.79495-1.6976 1.128-2.0858 0.56725-1.2837 1.7202-1.9324 0.78839-1.4092 1.5465-2.0894 0.56078-1.1232 1.9592-1.8367 0.92876-1.3592 1.6196-2.1245 0.51494-1.8605 0.89607-1.5721 1.3141-1.6916 1.1422-1.8581 0.89728-0.96146 2.1946-2.0728 0.59282-1.6779 1.163-1.8052 0.9847-1.4966 1.3942-2.1245-0.31511-1.9057-0.93765-2.0704-0.50837-1.9253-0.89783-1.9967-0.70283-1.8492-1.0977-2.2131-0.13612-1.7939-1.2469-2.1429-0.3228-1.6821-1.5412-1.9021-0.96265-2.0526-0.56605-1.829-1.1488-2.269 0.009-1.9592-0.81218-2.1376-0.34484-1.6833-1.5525-2.4063-0.28067 1.1648-1.9943 1.0602-1.7879 1.4794-1.5758 0.91746-1.8616 0.50124-2.0728 1.2522-1.6916 0.40373-2.1227 1.414-1.6095 0.54048-2.052 0.78011-1.9283 1.6298-1.4972 0.39837-2.1262 1.125-1.7546 0.47984-2.0847 1.5715-1.5287 0.87169-1.8866 0.682-1.9818 1.4859-1.5739 0.36508-2.1448 0.4073-2.1238 1.7041-1.4616 0.61244-2.0192 1.6203-1.5068-0.19562-2.4313 1.7523-1.4443 0.0357-2.0436-0.43227-1.8622 0.77952-2.3885-1.1672-1.9355-0.31394-2.1339-1.2255-1.9236 0.79974-2.3938-0.90379-1.996-1.2766-1.9116 0.41622-2.3052-1.3735-1.8897 0.0815-2.2315-0.44774-2.2369-1.5697 1.6684-1.939 0.60411-2.2856-0.10822-1.7481 1.0001-1.367 2.0419-1.8825-0.48819z" fill="#66a851"/>
   <path id="path3388" d="m233.86 939.93 2.4658 0.87459 2.09 0.37465 2.0169 0.56189 2.0805 0.40077 1.9449 0.75514 1.7618 1.2432 1.8557 0.99238 1.999 0.61726 2.2601-0.0676 1.9253 0.81394 1.7957 1.1493 1.8438 1.0287 2.1679 0.17483 1.7398 1.3052 1.8611 0.99469 2.0615 0.12556 1.4877-1.3349 2.1358-0.61013 1.5846-1.402 1.5281-1.4877 2.1061-0.65698 1.515-1.5049 1.446-1.6096 2.0383-0.75209 1.9086-0.94422 1.7083-1.2297 1.3985-1.6791 2.109-0.65587 1.3432-1.7606 1.625-1.3485 1.6393-1.3331 2.4753-0.12788 1.7386-1.1915 1.4247-1.65 1.4764-1.3961 0.27887-1.8575-0.0695-2.005 0.73016-1.9146 0.51492-1.9402 0.47152-1.9455-0.24617-2.0246 0.21405-1.9747-0.24497-2.0275 0.63503-1.9272 0.43881-1.9526 0.46497-1.9503-0.43405-1.5988 1.5168-1.5216 0.69508-2.0686 2.068-1.1547 0.43821-2.2392 1.961-1.2261 0.72897-2.0465 0.82589-1.9795 1.4692-1.5494 0.62136-2.115 2.0002-1.2011 1.037-1.8391 1.1333-1.7772 1.0001-1.8652 1.4288-1.5822 1.4847-1.5435 0.82768-1.9818 1.1149-1.7916 1.5239-1.5197 0.48995-2.2048 1.1803-1.7481 1.7975-1.3378 1.2195-1.7231 1.0334-1.851 1.2272-1.9693-1.8754-1.5126-0.0428-2.3284-1.4847-1.4918-1.2439-1.6351-0.29373-2.184-2.0133-1.188-1.1155-1.7083-0.6059-2.0068-1.034-1.7564-0.33774-2.1614-1.4609-1.5103-0.92757-1.8206-0.89963-1.8337-0.99714-1.7796-1.0881-1.7279-1.1993-1.6631-1.5686-1.4526-0.47627-2.2398-2.2172-0.0155-2.0704-0.13973-2.1298 0.36805-1.9318-1.3545-2.1923 0.91568-1.9075-1.5685-2.0864-0.0136-2.0317-0.46498-2.1798 0.80152-1.9461-1.2136-2.0912 0.0357-2.0561-0.26995-2.1376 0.43108-2.0514-0.31157-2.1061 0.15698-2.0579-0.27352-2.0246-0.56367-2.0769-0.0826-2.0305-0.51254-2.0127-0.66953-2.0775-0.1094-2.0222-0.6166-2.1946 0.0381-1.5263 1.6066-1.3266 1.7095-1.7041 1.2136-2.153 0.62254-1.1809 1.9003-1.9336 0.90914-1.6869 1.2302-2.1001 0.68914-1.2534 1.8082-1.9378 0.90319-1.3824 1.6375-2.1061 0.68379-1.0798 2.0377-1.8367 1.0394-1.3289 1.7089-2.1435 0.63919-1.8629 1.0078-1.5531 1.4116-1.6821 1.2463-1.8617 1.0102-0.90794 2.266-2.0894 0.71649-1.7142 1.3503 1.3658 1.8082 1.7035 1.3759 1.8278 1.251 1.3491 1.7106 1.6833 1.3961 1.3818 1.6821 1.5335 1.5406 1.2302 1.8325 1.6357 0.93353 1.5923-0.34012 1.5882-1.2814 2.1578-0.10822 1.8902-0.66773 1.7047-1.0489 2.0745 0.37698 1.9687 1.2891 0.42276 2.1072 0.91092 1.9961-0.34605 2.2868 1.1583 1.9378 0.25389 2.1494 0.35616 2.1257-0.10346 2.2298 0.51314 2.0888 0.96622 1.9841 0.14686 2.175 1.0744 1.9628-0.0292 2.2196 0.19622 1.8718-0.79914 1.9651-1.6482 1.5341-0.41562 2.1601-1.1434 1.791-0.49708 2.1186-1.59 1.5638-0.88774 1.9194-0.69805 2.0126-1.5019 1.6067-0.38233 2.178-0.42336 2.1548-1.722 1.4972-0.62907 2.0513-1.6375 1.5412 0.17897 2.4633-1.7671 1.4746-0.12367 2.3118-0.99595 1.8676-2.1168 1.2956-0.33654 2.203-1.1172 1.807-0.28362 2.2309-2.1049 1.2327-1.0518 2.5056zm32.298 17.014-0.87703 0.13556-2.1191-0.3853-2.0448-0.57198-2.1072-0.41095-1.9746-0.767-1.7879-1.2528-1.8855-1.0037-2.0264-0.62791-2.2886 0.0574-1.9526-0.82468-1.826-1.1607-1.873-1.0399-2.197-0.18556-1.766-1.3152-1.8866-1.0042-2.2107-0.14992-2.0609-0.54762-1.732-1.4222-2.0746-0.52087-2.002-1.537 0.72303-2.3439 0.62612-2.055 0.51492-2.1113 1.4443-1.6405 1.2368-1.7446 0.92697-1.9034 0.44-2.15 1.5501-1.5858 0.352-2.194 0.79557-1.9658 0.8146-1.9579 2.1233-1.2951 0.96919-1.8796 0.47509-2.1334 0.66772-2.0341 1.04-1.8474 0.69508-2.021 1.4122-1.6571 1.2201-1.7565 1.1809-1.776 0.53573-2.1019 0.95017-1.8932 0.53751-2.1036 1.3277-1.7023 1.1529-1.7951 1.2261-1.9449-1.4455-2.0044-0.0683-2.1542-1.0304-1.9312 0.57676-2.304-1.3301-1.8594 0.4507-2.2755-0.99059-1.9407-0.87585-1.9675-0.12308-2.1465-0.73611-1.4407-1.7219 0.0196-1.8302 1.0602-1.8825 0.95914-1.8135 1.1029-1.7784-0.0574-1.1815-1.0501-1.722-1.2195-1.4734-1.4585-1.1161-1.7957-2.0163-0.94243-1.4169-1.5126-0.87643-2.0204-1.3818-1.5436-1.5471-1.3902-1.436-1.496-2.0989-0.86693-0.61006-2.2856-1.8189-1.1381-1.0191-2.1857 1.7124-1.5257 0.97811-2.1804 1.6054-1.3551 1.9646-0.88476 1.6631-1.279 2.1512-0.6386 1.3658-1.6714 1.738-1.1803 1.7564-1.1547 1.6875-1.2433 1.6256-1.3271 1.5489-1.4312 1.2909-1.7677 2.1215-0.67784 1.5091-1.4829 1.6143-1.3474 1.3034-1.754 2.3534-0.374 0.97217-2.1941 2.4842-0.20335 1.5358-1.4478 1.8123-1.0875 1.0411-2.1025 2.2696-0.48756 1.5109-1.4912 1.697-1.2463 1.9081-1.1702 2.0728 0.31394 2.1281-0.154 2.0769 0.2759 2.0454 0.56605 2.0995 0.0845 2.0508 0.51552 2.0329 0.67189 2.0971 0.11119 2.0371 0.61898 2.1132-0.0292 2.1227-0.1332 2.1459-0.31691 2.0746 0.30265 1.9913 1.04 2.1732-0.55536 2.0323 0.68201 2.0799 0.27886 2.002 0.95611 2.159-0.43881 2.0323 0.68913 2.1376-0.22534 2.002 0.96384 2.1988-0.72423 2.0561 0.52028 2.6816 1.1606 0.37401 2.2131 0.77356 1.9782 1.213 1.722 1.0316 1.8284 0.77714 1.9788 2.14 1.1856 0.45486 2.1661 1.0548 1.8165 0.86573 1.9289 1.3034 1.6732 1.4568 1.5852 0.88297 1.9199 1.2802 1.6886 0.91924 1.8956 1.1 1.7933 0.73552 2.005 1.6256 1.4895 0.59995 2.0888 1.455 1.5923-0.37639 1.8236-0.6261 1.2504-0.97871 1.8308-1.4984 1.4847-0.47211 2.1685-1.1981 1.6845-0.78189 1.9628-1.8557 1.248-0.56902 2.1024-1.3432 1.5876-1.254 1.6446-1.647 1.3848-1.1226 1.7362-0.73314 1.9925-1.436 1.5287-0.64217 2.0543-1.587 1.4288-0.77118 1.9699-0.99655 1.8207-1.7897 1.295-0.6386 2.0597-1.317 1.6066-0.71471 2.0098-1.735 1.3307-1.081 1.7672-0.90616 1.8872-1.7202 1.5144 0.37698 2.2416 0.36389 2.0948-1.0834 1.93 0.13497 2.0703-0.98821 1.942 1.0364 2.1714-1.1333 1.9253 0.69984 2.1352-0.27351 2.0246-1.5234 1.8849 0.46141 2.112-1.348 1.9385-1.2427 1.7855-2.4277 0.0759-1.43 1.5139-1.2118 1.8278-2.2006 0.39771-1.1553 1.9093-2.0086 0.68199-1.7457 1.0572-1.1719 1.8885-1.848 0.91209-2.3005 0.26224-1.5977 1.2742-0.96503 2.188-2.2149 0.38771-1.5364 1.3652-1.8432 0.91932-1.5156 1.3955-1.5299 1.3747-1.7487 1.0614-1.8195 0.96506-1.4847 1.4467-1.7725-0.37882z" fill="#232323"/>
   <path id="path3392" d="m127.04 924.21 1.9883 0.93895 2.1388-0.53161 2.0728 0.0509 2.049 0.23243 2.0014 0.66541 2.1031-0.23844 1.9622 1.0108 2.0924-0.13556 2.1346-0.48753 1.9348 1.248 2.0204 0.50485 2.1447-0.56671 2.0674 0.10047 2.0157 0.53633 1.9776 0.88839 2.0936-0.12019 2.0751 0.0472 2.0698 0.1177 2.4051 0.23372-2.2018 0.98052-1.804 1.0619-2.3046-0.35141-1.942 0.67782-1.5638 1.7487-2.2571-0.21696-2.0722 0.30493-1.8706 0.87524-1.8866 0.83246-1.7327 1.2725-2.1643 0.0491-1.9568 0.63384-1.7998 1.0767-2.1429 0.10825-1.562 1.7583-2.1304 0.14566-2.0692 0.31696-1.9306 0.70995-1.6542 1.4966-1.9223 0.73366-2.0062 0.49827-2.0674 0.32771-1.8861 0.83718-2.1102 0.20575-1.9443 0.67301-1.722 1.3052-2.1072 0.214-2.0412 0.39067-1.5138 1.886-2.1524 0.087-2.0615 0.33835-1.6381 1.5442-1.9467 0.66532-2.2844-0.28483-1.9586 0.63449-1.5549 1.7808-2.3653-0.51013-1.6732 1.4472-2.2006-0.05-1.9277 0.72653-1.6738 1.4485-2.0133 0.48753-1.9223 0.75514-2.2125 1.034 0.14924-2.4961-1.1369-1.7648-0.12011-2.0311-0.1308-2.0306-1.4609-1.6791 0.22951-2.1269-1.1333-1.7696-0.47151-2.1221 2.3701-0.0722 1.9092-0.81634 1.8462-0.98405 2.0323-0.49595 1.7915-1.1273 1.895-0.85681 1.9806-0.63152 1.9866-0.61541 1.9634-0.67717 2.0603-0.41271 1.5983-1.6321 1.9877-0.61365 2.1126-0.27947 1.6952-1.3842 2.3421 0.32169 1.826-1.0424 1.7523-1.2332 1.7434-1.2581 2.1286-0.24789 1.9984-0.5917 1.8034-1.0958 1.9955-0.59874 1.8016-1.1083 2.005-0.5756 2.1958-0.0926 1.8587-1.0102z" fill="#66a851"/>
   <path id="path3396" d="m80.098 945.27-0.15579 2.1067 1.2701 1.7837 0.70281 1.9342 0.52622 1.9848 0.15935 2.1625 1.8861-1.1352 2.2214 0.0426 1.8373-1.0441 1.7178-1.3782 2.2993 0.26936 2.0514-0.43641 1.6934-1.4544 1.9164-0.82051 2.0615-0.40614 2.1804-0.0732 1.8426-1.0298 1.898-0.87172 1.9217-0.80449 1.8587-0.98757 1.9913-0.60716 1.829-1.0708 2.3278 0.34307 1.9645-0.68559 1.5864-1.7571 2.2773 0.20992 2.0942-0.31215 1.895-0.88413 1.908-0.84024 1.7552-1.2807 2.1857-0.0574 1.9818-0.64217 1.8236-1.0852 2.1667-0.11649 1.5846-1.7666 2.1548-0.15399 2.0918-0.32465 1.955-0.71884 1.6774-1.5049 1.9473-0.74273 2.0341-0.50772 2.1477-0.41503-2.0781-0.14565-1.9301-0.73375-1.9877-0.24085-2.0632 0.42512-1.9324-0.72422-1.9544-0.53744-2.1352 1.0375-1.9152-0.85793-1.9485-0.59346-2.0942 0.67671-1.9883-0.24919-1.8771-1.2504-2.1144-0.28178-1.6774 1.8646-2.4242-0.43641-1.6863 1.5043-2.2511 0.0213-1.9586 0.78903-1.6863 1.5061-2.0484 0.55244-1.9455 0.81515-1.8314 1.1185-2.3118-0.13982-1.7422 1.3552-2.1168 0.37391-2.1126 0.38299-1.6256 1.669-2.2452 0.0352-1.7463 1.3521-1.9824 0.7332-2.2725-0.0315-1.9431 0.8295-1.8819 0.9971-2.0674 0.50957-1.8278 1.141-1.933 0.87172-1.9312 0.73967zm0.56248 16.6-1.053-0.97034-1.87-1.2178-0.68974-1.8831-0.51194-1.93-0.09038-2.0389-0.97038-1.8087 0.24438-2.1299-0.86989-1.8355-1.2142-1.7487 0.47448-2.1947 0.43941-1.6952 0.93233-1.8445 1.8926-0.8633 2.0472-0.45308 2.1732-0.12251 1.8141-1.0715 1.8724-0.9145 1.8985-0.84727 1.829-1.0292 1.9729-0.65226 1.7987-1.1119 2.3272 0.29141 1.9414-0.72903 1.5406-1.7921 2.2785 0.15751 2.0841-0.36085 1.8676-0.9259 1.8861-0.88468 1.7196-1.3189 2.181-0.1076 1.9616-0.68736 1.7951-1.1261 2.1572-0.16538 1.5382-1.801 2.1459-0.20334 2.0817-0.37281 1.9366-0.76403 1.6411-1.5436 1.5674-0.24668 2.0282 0.43169 2.008 0.6118 2.0698 0.075 1.9907 0.74033 2.0496 0.24788 2.1233-0.41799 1.9943 0.73135 2.0145 0.54466 2.1964-1.031 1.9788 0.8657 2.0097 0.59995 2.156-0.66893 2.0502 0.25566 1.933 1.257 2.0466 0.28956 2.1846-0.91867 1.9092 1.496 2.1483-0.5667 1.9681 1.0108 1.386 0.62551 1.4692 1.2915-0.63621 1.9046-1.4811 1.273-1.8058 1.0566-2.2541-0.21288-1.7219 1.2963-2.074 0.30558-2.0704 0.31511-1.6108 1.612-2.1929-0.0361-1.7237 1.292-1.9449 0.66652-2.2184-0.10288-1.9116 0.76524-1.8504 0.93413-2.0246 0.44123-1.8004 1.0791-1.898 0.80626-1.977 0.57855-1.9824 0.56254-1.9616 0.62374-2.0561 0.35975-1.6197 1.5887-1.9842 0.56068-2.1037 0.22418-1.7095 1.3379-2.3177-0.38233-1.832 0.99237-1.7642 1.1862-1.7546 1.2106-2.112 0.19029-1.9913 0.53689-1.8129 1.0476-1.9883 0.54467-1.8094 1.059-1.9978 0.52152-2.1727 0.0315-2.1061 0.21705-1.8432 0.96497-1.8117 1.0554-1.8789 0.86579-1.8195 1.0275-1.9479 0.67069-2.1215 0.17954-2.0329 0.43225-1.9027 0.81163-1.6577 1.5032-1.1963-0.42512z" fill="#232323"/>
  </g>
  <g id="g4162" transform="matrix(1.7999 0 0 -1.7999 215.56 993.68)">
   <g id="g4164" transform="scale(.1)">
    <path id="path4166" stroke-linejoin="round" d="m2923 278.2c-12.71 13.742-61.1 26.164-102.26 30.84-75.26 8.527-692.09 111.89-760.9 126.52-26.75 5.691-74.82 15.847-132.18 28.211 55.5 8.906 89.48 14.464 89.48 14.464s87.9 27.782 124.83 63.477c54.07-5.129 108.03-8.566 126.8-10.012 40.89-3.144 176.15-3.144 210.75 6.289 34.6 9.446-12.59 25.168-12.59 25.168l-294.92 47.188c1.52 10.801 0.9 20.898-3.12 30.117l222.55 523.46-81.78-6.29-1.55-3.1c-21.16-2.42-47.61-5.95-58.2-9.48-18.88-6.29-283.09-383.73-283.09-383.73-69.2 0-673.11 44.032-736.02 44.032-35.75 0-136.49 18.281-216.83 34.074-129.2 99.133-412.63 312.7-427.97 343.37-1.886 3.78-3.816 7.44-5.765 11.01-0.27 0.49-0.531 0.98-0.801 1.47-1.871 3.38-3.766 6.64-5.68 9.77-0.328 0.54-0.66 1.07-0.984 1.61-1.934 3.11-3.879 6.09-5.836 8.9-0.242 0.35-0.492 0.68-0.738 1.02-4.106 5.79-8.25 10.84-12.391 14.95-0.254 0.26-0.515 0.53-0.765 0.78-1.985 1.91-3.961 3.58-5.93 5.04-0.317 0.23-0.629 0.45-0.942 0.66-1.972 1.39-3.941 2.55-5.894 3.41-0.227 0.11-0.449 0.17-0.68 0.26-3.164 1.3-6.289 1.92-9.34 1.67-0.132-0.01-0.269 0.01-0.406 0-1.215-0.13-2.418-0.39-3.605-0.79-18.875-6.28-94.364-34.59-69.203-84.92 25.164-50.33 36.171-61.33 61.335-99.08 16.008-24.01 93.719-112.26 148.17-173.34-10.882-1.141-21.992-2.559-33.363-4.379-149.84-23.93-328.1-122.06-404.5-174.82-0.664-0.457-1.332-0.918-1.98-1.372-3.071-2.136-6.031-4.226-8.746-6.199-4.36-3.172-9.051-6.496-13.996-9.957-0.012-0.011-0.024-0.015-0.032-0.023-4.941-3.465-10.136-7.063-15.527-10.781l0.004-0.008c-31.859-22.039-70.414-48.653-102.08-77.879h-0.0118c-0.0703-0.07-0.1406-0.137-0.2148-0.207-1.4922-1.387-2.9453-2.781-4.4063-4.18-1.1289-1.074-2.2812-2.148-3.3906-3.223-1.5351-1.492-3.0039-3.007-4.4883-4.519-1-1.008-2.0273-2.012-3-3.027-1.4687-1.516-2.8593-3.059-4.2734-4.59-0.9375-1.016-1.9141-2.024-2.8281-3.047-1.4414-1.613-2.8047-3.235-4.1797-4.856-0.8164-0.957-1.6758-1.902-2.4649-2.859-1.3632-1.652-2.6367-3.312-3.9257-4.973-0.75-0.945-1.5352-1.894-2.2539-2.851-1.2305-1.641-2.3672-3.289-3.5235-4.93-0.6992-0.988-1.4414-1.973-2.1094-2.969-1.1367-1.679-2.1679-3.379-3.2226-5.078-0.5938-0.957-1.2461-1.914-1.8164-2.871-1.0117-1.711-1.9102-3.43-2.8321-5.137-0.5156-0.968-1.0937-1.925-1.582-2.89-0.8555-1.692-1.582-3.379-2.3437-5.071-0.4532-1.003-0.9649-2.011-1.3868-3.015-0.6992-1.692-1.2695-3.391-1.875-5.09-0.3632-1.016-0.7929-2.02-1.1171-3.035-0.543-1.711-0.9493-3.41-1.3868-5.117-0.2656-1.016-0.6015-2.032-0.8242-3.059-0.3711-1.687-0.5937-3.387-0.8594-5.086-0.164-1.035-0.4023-2.082-0.5234-3.117-0.1914-1.648-0.2226-3.301-0.3047-4.949-0.0508-1.094-0.1875-2.188-0.1992-3.293-0.0039-1.629 0.1523-3.27 0.2539-4.903 0.0703-1.121 0.0469-2.234 0.1719-3.347 0.1836-1.68 0.5469-3.36 0.8555-5.051 0.1992-1.074 0.3007-2.137 0.5507-3.211 0.6328-2.766 1.4336-5.519 2.4219-8.273 31.449-88.067 201.69-144.14 339.7-165.65 161.46-25.168 564.04 28.699 647.95 30.41 62.89 1.278 241.01 25.086 429.84 52.821 75.21-18.184 170.17-39.903 269.46-61.785-55.16-28.293-88.88-85.528-87.73-144.35 1.61-81.77 66.95-159.52 164.23-158.37 75.55 0.8985 147.16 55.289 171.93 67.25 54.28 26.199 86.2 82.84 85.1 138.96-0.17 9.152-1.45 18.062-3.51 26.722 109.51-22 199.09-38.48 239.89-43.113 150.55-17.066 431.38 9.172 570.46 30.203 63.01 9.52 76.94 21.797 66.41 33.172z" stroke="#231f20" stroke-linecap="round" stroke-miterlimit="10" stroke-width="50" fill="none"/>
    <path id="path4168" d="m721.23 824.22s-176.14 213.89-201.3 251.63-37.742 31.45-62.906 81.78c-25.161 50.33 50.328 78.64 69.203 84.92 18.871 6.29 40.886-22.01 59.757-59.76 18.875-37.74 443.5-352.27 487.54-390.02 44.03-37.746-352.29 31.453-352.29 31.453" fill="#fff"/>
    <path id="path4170" d="m721.23 824.22s-176.14 213.89-201.3 251.63-37.742 31.45-62.906 81.78c-25.161 50.33 50.328 78.64 69.203 84.92 18.871 6.29 40.886-22.01 59.757-59.76 18.875-37.74 443.5-352.27 487.54-390.02 44.03-37.746-352.29 31.453-352.29 31.453z" stroke="#231f20" stroke-miterlimit="10" stroke-width="10" fill="none"/>
    <path id="path4172" d="m1073.5 792.77c-44.04 37.75-468.66 352.28-487.54 390.02-16.484 32.97-35.367 58.73-52.457 60.53-4.222-21.03-1.062-56.1 43.024-98.27 71.312-68.22 420.54-353.25 430.44-361.34 49.16-4.133 80.7-3.09 66.53 9.055" fill="#51ade5"/>
    <path id="path4174" d="m1073.5 792.77c-44.04 37.75-468.66 352.28-487.54 390.02-16.484 32.97-35.367 58.73-52.457 60.53-4.222-21.03-1.062-56.1 43.024-98.27 71.312-68.22 420.54-353.25 430.44-361.34 49.16-4.133 80.7-3.09 66.53 9.055z" stroke="#231f20" stroke-miterlimit="10" stroke-width="10" fill="none"/>
    <path id="path4176" d="m533.52 1243.3c-2.472 0.27-4.914 0.04-7.3-0.77-18.875-6.28-94.364-34.59-69.203-84.92 25.164-50.33 36.171-61.33 61.335-99.08 25.165-37.74 202.88-234.33 202.88-234.33s182.18-31.797 285.76-40.508c-9.904 8.086-359.13 293.12-430.44 361.34-44.086 42.17-47.246 77.24-43.024 98.27" fill="#fff"/>
    <path id="path4178" d="m533.52 1243.3c-2.472 0.27-4.914 0.04-7.3-0.77-18.875-6.28-94.364-34.59-69.203-84.92 25.164-50.33 36.171-61.33 61.335-99.08 25.165-37.74 202.88-234.33 202.88-234.33s182.18-31.797 285.76-40.508c-9.904 8.086-359.13 293.12-430.44 361.34-44.086 42.17-47.246 77.24-43.024 98.27z" stroke="#231f20" stroke-miterlimit="10" stroke-width="10" fill="none"/>
    <path id="path4180" d="m474.32 1168.6s182.43-228.04 275.22-306.68h-45.613s-220.18 254.78-229.61 298.82" fill="#bdbcbc"/>
    <path id="path4182" d="m1966.8 761.32s264.21 377.44 283.09 383.73c18.86 6.29 88.06 12.58 88.06 12.58l-195.1-490.65-176.1 94.37" fill="#fff"/>
    <path id="path4184" d="m1966.8 761.32s264.21 377.44 283.09 383.73c18.86 6.29 88.06 12.58 88.06 12.58l-195.1-490.65-176.1 94.37z" stroke="#231f20" stroke-miterlimit="10" stroke-width="10" fill="none"/>
    <path id="path4186" d="m2070.6 679.53 97.5-40.886 223.32 525.28-81.78-6.29-239.04-478.1" fill="#51ade5"/>
    <path id="path4188" d="m2070.6 679.53 97.5-40.886 223.32 525.28-81.78-6.29-239.04-478.1z" stroke="#231f20" stroke-miterlimit="10" stroke-width="10" fill="none"/>
    <path id="path4190" d="m2049.7 231.22c1.1-56.117-30.82-112.76-85.1-138.96-24.77-11.961-96.38-66.352-171.93-67.25-97.28-1.1523-162.62 76.597-164.23 158.37-1.6 81.769 63.96 160.79 161.22 162.7 24.3 0.469 128.59 26.524 149.8 19.465 63.64-21.23 109.04-73.008 110.24-134.32" fill="#fff"/>
    <path id="path4192" d="m2049.7 231.22c1.1-56.117-30.82-112.76-85.1-138.96-24.77-11.961-96.38-66.352-171.93-67.25-97.28-1.1523-162.62 76.597-164.23 158.37-1.6 81.769 63.96 160.79 161.22 162.7 24.3 0.469 128.59 26.524 149.8 19.465 63.64-21.23 109.04-73.008 110.24-134.32z" stroke="#231f20" stroke-miterlimit="10" stroke-width="10" fill="none"/>
    <path id="path4194" d="m1861.4 59.141s107.54 124.25 10.44 245.15l137.15 8.504s35.95-60.863 23.44-110.84c-12.51-49.98-44.98-83.629-44.98-83.629l-126.1-59.179" fill="#bdbcbc"/>
    <path id="path4196" d="m1869.7 182.2c1.3-65.29-45.6-119.19-104.7-120.35-59.1-1.159-108 50.84-109.3 116.15-1.26 65.301 45.59 119.19 104.7 120.33 59.11 1.16 108.03-50.832 109.33-116.13" fill="#7b7979"/>
    <path id="path4198" d="m1869.7 182.2c1.3-65.29-45.6-119.19-104.7-120.35-59.1-1.159-108 50.84-109.3 116.15-1.26 65.301 45.59 119.19 104.7 120.33 59.11 1.16 108.03-50.832 109.33-116.13z" stroke="#231f20" stroke-miterlimit="10" stroke-width="10" fill="none"/>
    <path id="path4200" d="m903.66 861.96s-113.23 44.039-270.5 18.871c-157.26-25.15-345.99-132.1-415.19-182.42-69.2-50.33-220.17-138.4-188.72-226.48 31.453-88.06 213.89-125.81 352.28-144.67 138.4-18.879 541 12.578 622.79 31.445 81.77 18.875 1012.8 119.53 1012.8 119.53s119.53 37.743 138.4 81.778c18.87 44.031 31.46 81.777-12.58 106.94-44.04 25.164-106.94 94.363-176.14 94.363s-673.11 44.032-736.02 44.032c-62.9 0-327.12 56.617-327.12 56.617" fill="#fff"/>
    <path id="path4202" d="m903.66 861.96s-113.23 44.039-270.5 18.871c-157.26-25.15-345.99-132.1-415.19-182.42-69.2-50.33-220.17-138.4-188.72-226.48 31.453-88.06 213.89-125.81 352.28-144.67 138.4-18.879 541 12.578 622.79 31.445 81.77 18.875 1012.8 119.53 1012.8 119.53s119.53 37.743 138.4 81.778c18.87 44.031 31.46 81.777-12.58 106.94-44.04 25.164-106.94 94.363-176.14 94.363s-673.11 44.032-736.02 44.032c-62.9 0-327.12 56.617-327.12 56.617z" stroke="#231f20" stroke-miterlimit="10" stroke-width="10" fill="none"/>
    <path id="path4204" d="m412.99 383.87c-144.69 6.29-213.89 59.76-213.89 59.76 37.46 104.9-67.79 144.32-112.77 156.13-42.697-39.43-72.861-83.63-57.076-127.83 31.449-88.06 201.69-144.14 339.7-165.65 161.46-25.168 564.04 28.699 647.95 30.41 154.12 3.145 1000.2 141.54 1000.2 141.54s119.53 37.743 138.4 81.778c6.98 16.269 13.06 31.668 15.77 45.898-619-186-1621.4-228-1758.4-222.04" fill="#51ade5"/>
    <path id="path4206" d="m412.99 383.87c-144.69 6.29-213.89 59.76-213.89 59.76 37.46 104.9-67.79 144.32-112.77 156.13-42.697-39.43-72.861-83.63-57.076-127.83 31.449-88.06 201.69-144.14 339.7-165.65 161.46-25.168 564.04 28.699 647.95 30.41 154.12 3.145 1000.2 141.54 1000.2 141.54s119.53 37.743 138.4 81.778c6.98 16.269 13.06 31.668 15.77 45.898-619-186-1621.4-228-1758.4-222.04z" stroke="#231f20" stroke-miterlimit="10" stroke-width="10" fill="none"/>
    <path id="path4208" d="m468.3 548.96 37.301 142.56c-7.747 1.152-15.575 2.382-23.418 3.746-57.543 10.008-129.51 52.426-156.62 69.406-45.805-25.012-83.84-48.988-107.59-66.262-8.727-6.34-18.758-13.308-29.555-20.761l16.973-16.985c56.164-72.691 168.69-101.09 262.91-111.7" fill="#b2b1b1"/>
    <path id="path4210" d="m468.3 548.96 37.301 142.56c-7.747 1.152-15.575 2.382-23.418 3.746-57.543 10.008-129.51 52.426-156.62 69.406-45.805-25.012-83.84-48.988-107.59-66.262-8.727-6.34-18.758-13.308-29.555-20.761l16.973-16.985c56.164-72.691 168.69-101.09 262.91-111.7z" stroke="#231f20" stroke-miterlimit="10" stroke-width="10" fill="none"/>
    <path id="path4212" d="m2007.7 566.3c12.58-18.867 220.18-31.457 261.06-34.602 40.89-3.144 176.15-3.144 210.75 6.289 34.6 9.446-12.59 25.168-12.59 25.168l-314.53 50.321s-157.27-28.301-144.69-47.176" fill="#fff"/>
    <path id="path4214" d="m2007.7 566.3c12.58-18.867 220.18-31.457 261.06-34.602 40.89-3.144 176.15-3.144 210.75 6.289 34.6 9.446-12.59 25.168-12.59 25.168l-314.53 50.321s-157.27-28.301-144.69-47.176z" stroke="#231f20" stroke-miterlimit="10" stroke-width="10" fill="none"/>
    <path id="path4216" d="m2923 278.2c-12.71 13.742-61.1 26.164-102.26 30.84-75.26 8.527-692.09 111.89-760.9 126.52-68.78 14.648-278.3 58.66-425.14 94.5 0 0-42.3-7.938-97.35-19.442 168.69-43.027 664.06-167.54 824.37-187.9 160.15-20.332 452.35-48.848 561.28-44.512" fill="#51ade5"/>
    <path id="path4218" d="m2923 278.2c-12.71 13.742-61.1 26.164-102.26 30.84-75.26 8.527-692.09 111.89-760.9 126.52-68.78 14.648-278.3 58.66-425.14 94.5 0 0-42.3-7.938-97.35-19.442 168.69-43.027 664.06-167.54 824.37-187.9 160.15-20.332 452.35-48.848 561.28-44.512z" stroke="#231f20" stroke-miterlimit="10" stroke-width="10" fill="none"/>
    <path id="path4220" d="m2361.7 322.72c-160.31 20.363-655.68 144.88-824.37 187.9-109.27-22.851-282.42-53.156-248.53-77.238 32.84-23.328 846.77-201.45 997.31-218.55 150.55-17.066 431.38 9.172 570.46 30.203 63.01 9.52 76.94 21.797 66.41 33.172-108.93-4.336-401.13 24.18-561.28 44.512" fill="#fff"/>
    <path id="path4222" d="m2361.7 322.72c-160.31 20.363-655.68 144.88-824.37 187.9-109.27-22.851-282.42-53.156-248.53-77.238 32.84-23.328 846.77-201.45 997.31-218.55 150.55-17.066 431.38 9.172 570.46 30.203 63.01 9.52 76.94 21.797 66.41 33.172-108.93-4.336-401.13 24.18-561.28 44.512z" stroke="#231f20" stroke-miterlimit="10" stroke-width="10" fill="none"/>
    <path id="path4224" d="m1364.8 449.99s821.6-200.71 972.52-205.2c150.92-4.519 529.31 21.981 529.31 21.981s-357.42-61.731-542.46-40.481c-185.01 21.25-985.46 193.03-994.42 209.02l35.05 14.679" fill="#bdbcbc"/>
    <path id="path4226" d="m2062.7 571.02 15.73 7.863s267.36-39.316 355.43-28.301c0 0-28.31-9.445-102.22-9.445-73.92 0-268.94 29.883-268.94 29.883" fill="#bdbcbc"/>
    <path id="path4228" d="m530.67 688.09-30.28-142.17c52.328-4.023 87.113-3.738 105.52-3.738 18.871 0 18.016 10.437 18.016 10.437l2.641 113.27s0.312 14.422-13.344 14.422c-16.867 0-47.567 3.379-82.547 7.777" fill="#b2b1b1"/>
    <path id="path4230" d="m530.67 688.09-30.28-142.17c52.328-4.023 87.113-3.738 105.52-3.738 18.871 0 18.016 10.437 18.016 10.437l2.641 113.27s0.312 14.422-13.344 14.422c-16.867 0-47.567 3.379-82.547 7.777z" stroke="#231f20" stroke-miterlimit="10" stroke-width="10" fill="none"/>
    <path id="path4232" d="m946.04 574.69c0.078-6.915 5.797-12.208 12.699-11.758l60.842 3.976c6.9 0.449 12.49 6.485 12.41 13.399l-0.92 82.054c-0.08 6.914-5.81 12.532-12.73 12.481l-60.836-0.492c-6.918-0.051-12.52-5.762-12.441-12.676l0.976-86.984" fill="#b2b1b1"/>
    <path id="path4234" d="m946.04 574.69c0.078-6.915 5.797-12.208 12.699-11.758l60.842 3.976c6.9 0.449 12.49 6.485 12.41 13.399l-0.92 82.054c-0.08 6.914-5.81 12.532-12.73 12.481l-60.836-0.492c-6.918-0.051-12.52-5.762-12.441-12.676l0.976-86.984z" stroke="#231f20" stroke-miterlimit="10" stroke-width="10" fill="none"/>
    <path id="path4236" d="m1260.7 664.21c-0.26 6.918-6.15 12.523-13.06 12.477l-59.45-0.485c-6.91-0.051-12.52-5.762-12.43-12.676l0.82-73.761c0.08-6.914 5.79-12.207 12.7-11.758l62.01 4.043c6.91 0.461 12.34 6.476 12.07 13.39l-2.66 68.77" fill="#b2b1b1"/>
    <path id="path4238" d="m1260.7 664.21c-0.26 6.918-6.15 12.523-13.06 12.477l-59.45-0.485c-6.91-0.051-12.52-5.762-12.43-12.676l0.82-73.761c0.08-6.914 5.79-12.207 12.7-11.758l62.01 4.043c6.91 0.461 12.34 6.476 12.07 13.39l-2.66 68.77z" stroke="#231f20" stroke-miterlimit="10" stroke-width="10" fill="none"/>
    <path id="path4240" d="m1146.4 663.29c-0.08 6.914-5.81 12.527-12.73 12.48l-60.84-0.503c-6.92-0.047-12.52-5.762-12.44-12.68l0.9-80.363c0.08-6.922 5.79-12.215 12.7-11.758l60.84 3.976c6.9 0.457 12.49 6.493 12.42 13.407l-0.85 75.441" fill="#b2b1b1"/>
    <path id="path4242" d="m1146.4 663.29c-0.08 6.914-5.81 12.527-12.73 12.48l-60.84-0.503c-6.92-0.047-12.52-5.762-12.44-12.68l0.9-80.363c0.08-6.922 5.79-12.215 12.7-11.758l60.84 3.976c6.9 0.457 12.49 6.493 12.42 13.407l-0.85 75.441z" stroke="#231f20" stroke-miterlimit="10" stroke-width="10" fill="none"/>
    <path id="path4244" d="m1376.1 665.15c-0.28 6.915-6.18 12.52-13.09 12.469l-60.84-0.5c-6.91-0.051-12.36-5.754-12.09-12.672l2.6-67.082c0.27-6.922 6.14-12.207 13.05-11.746l60.87 3.965c6.9 0.457 12.32 6.473 12.03 13.398l-2.53 62.168" fill="#b2b1b1"/>
    <path id="path4246" d="m1376.1 665.15c-0.28 6.915-6.18 12.52-13.09 12.469l-60.84-0.5c-6.91-0.051-12.36-5.754-12.09-12.672l2.6-67.082c0.27-6.922 6.14-12.207 13.05-11.746l60.87 3.965c6.9 0.457 12.32 6.473 12.03 13.398l-2.53 62.168z" stroke="#231f20" stroke-miterlimit="10" stroke-width="10" fill="none"/>
    <path id="path4248" d="m1814.6 631.47c0.42-6.91 6.4-12.164 13.29-11.676l31.95 2.234c6.9 0.489 11.76 6.485 10.78 13.348l-4.82 33.797c-0.98 6.855-7.45 12.414-14.36 12.359l-27.22-0.219c-6.91-0.05-12.24-5.75-11.83-12.656l2.21-37.187" fill="#b2b1b1"/>
    <path id="path4250" d="m1814.6 631.47c0.42-6.91 6.4-12.164 13.29-11.676l31.95 2.234c6.9 0.489 11.76 6.485 10.78 13.348l-4.82 33.797c-0.98 6.855-7.45 12.414-14.36 12.359l-27.22-0.219c-6.91-0.05-12.24-5.75-11.83-12.656l2.21-37.187z" stroke="#231f20" stroke-miterlimit="10" stroke-width="10" fill="none"/>
    <path id="path4252" d="m1783 668.43c-0.42 6.902-6.41 12.504-13.33 12.457l-31.04-0.262c-6.93-0.047-12.34-5.746-12.04-12.664l1.82-42.121c0.29-6.914 6.19-12.195 13.1-11.746l32 2.09c6.9 0.457 12.22 6.472 11.81 13.379l-2.32 38.867" fill="#b2b1b1"/>
    <path id="path4254" d="m1783 668.43c-0.42 6.902-6.41 12.504-13.33 12.457l-31.04-0.262c-6.93-0.047-12.34-5.746-12.04-12.664l1.82-42.121c0.29-6.914 6.19-12.195 13.1-11.746l32 2.09c6.9 0.457 12.22 6.472 11.81 13.379l-2.32 38.867z" stroke="#231f20" stroke-miterlimit="10" stroke-width="10" fill="none"/>
    <path id="path4256" d="m1697.3 667.73c-0.29 6.918-6.2 12.519-13.12 12.468l-48.41-0.402c-6.92-0.051-12.34-5.75-12.02-12.668l2.12-47.992c0.32-6.914 6.22-12.199 13.12-11.75l48.2 3.144c6.91 0.461 12.31 6.477 12.01 13.399l-1.9 43.801" fill="#b2b1b1"/>
    <path id="path4258" d="m1697.3 667.73c-0.29 6.918-6.2 12.519-13.12 12.468l-48.41-0.402c-6.92-0.051-12.34-5.75-12.02-12.668l2.12-47.992c0.32-6.914 6.22-12.199 13.12-11.75l48.2 3.144c6.91 0.461 12.31 6.477 12.01 13.399l-1.9 43.801z" stroke="#231f20" stroke-miterlimit="10" stroke-width="10" fill="none"/>
    <path id="path4260" d="m915.72 661.44c-0.086 6.914-5.809 12.527-12.727 12.48l-70.617-0.578c-6.918-0.047-12.68-5.762-12.801-12.68l-1.656-94.359c-0.121-6.914 5.43-12.219 12.34-11.758l74.039 4.824c6.902 0.457 12.492 6.492 12.41 13.406l-0.988 88.665" fill="#b2b1b1"/>
    <path id="path4262" d="m915.72 661.44c-0.086 6.914-5.809 12.527-12.727 12.48l-70.617-0.578c-6.918-0.047-12.68-5.762-12.801-12.68l-1.656-94.359c-0.121-6.914 5.43-12.219 12.34-11.758l74.039 4.824c6.902 0.457 12.492 6.492 12.41 13.406l-0.988 88.665z" stroke="#231f20" stroke-miterlimit="10" stroke-width="10" fill="none"/>
    <path id="path4264" d="m1491 666.07c-0.42 6.911-6.42 12.508-13.34 12.461l-60.06-0.48c-6.92-0.047-12.35-5.75-12.06-12.664l2.45-60.488c0.29-6.915 6.18-12.2 13.08-11.75l61.47 4.023c6.9 0.449 12.21 6.477 11.79 13.379l-3.33 55.519" fill="#b2b1b1"/>
    <path id="path4266" d="m1491 666.07c-0.42 6.911-6.42 12.508-13.34 12.461l-60.06-0.48c-6.92-0.047-12.35-5.75-12.06-12.664l2.45-60.488c0.29-6.915 6.18-12.2 13.08-11.75l61.47 4.023c6.9 0.449 12.21 6.477 11.79 13.379l-3.33 55.519z" stroke="#231f20" stroke-miterlimit="10" stroke-width="10" fill="none"/>
    <path id="path4268" d="m1594.4 666.89c-0.31 6.918-6.22 12.519-13.13 12.472l-49.07-0.39c-6.92-0.055-12.23-5.754-11.82-12.657l3.23-53.863c0.42-6.906 6.42-12.187 13.32-11.738l47.68 3.105c6.9 0.457 12.3 6.473 12 13.399l-2.21 49.672" fill="#b2b1b1"/>
    <path id="path4270" d="m1594.4 666.89c-0.31 6.918-6.22 12.519-13.13 12.472l-49.07-0.39c-6.92-0.055-12.23-5.754-11.82-12.657l3.23-53.863c0.42-6.906 6.42-12.187 13.32-11.738l47.68 3.105c6.9 0.457 12.3 6.473 12 13.399l-2.21 49.672z" stroke="#231f20" stroke-miterlimit="10" stroke-width="10" fill="none"/>
   </g>
  </g>
 </g>
</svg>
