<?xml version="1.0" encoding="UTF-8" standalone="no"?>
<svg
   xmlns:dc="http://purl.org/dc/elements/1.1/"
   xmlns:cc="http://creativecommons.org/ns#"
   xmlns:rdf="http://www.w3.org/1999/02/22-rdf-syntax-ns#"
   xmlns:svg="http://www.w3.org/2000/svg"
   xmlns="http://www.w3.org/2000/svg"
   version="1.1"
   id="svg2"
   viewBox="0 0 98.226998 50.000001"
   height="50"
   width="98.226997">
  <defs
     id="defs4" />
  <metadata
     id="metadata7">
    <rdf:RDF>
      <cc:Work
         rdf:about="">
        <dc:format>image/svg+xml</dc:format>
        <dc:type
           rdf:resource="http://purl.org/dc/dcmitype/StillImage" />
        <dc:title></dc:title>
      </cc:Work>
    </rdf:RDF>
  </metadata>
  <g
     transform="translate(0,-1002.3621)"
     style="display:inline"
     id="layer1">
    <g
       transform="matrix(0.17888962,0,0,0.17888962,-3.8333905,980.0482)"
       id="g5651">
      <path
         style="opacity:1;fill-opacity:0;stroke:#000000;stroke-width:5;stroke-miterlimit:4;stroke-dasharray:none"
         d="M 314.70312,127.2356 A 253.31938,137.25105 0 0 0 152.16406,159.3899 C 109.66454,148.73094 65.73463,143.78921 21.929688,144.77857 c 32.559806,6.65849 63.962649,18.89515 92.484372,35.94922 a 253.31938,137.25105 0 0 0 -53.031248,83.75977 253.31938,137.25105 0 0 0 253.320308,137.25 253.31938,137.25105 0 0 0 253.31836,-137.25 A 253.31938,137.25105 0 0 0 314.70312,127.2356 Z"
         id="path4136" />
      <g
         id="flowRoot5627"
         style="font-style:normal;font-variant:normal;font-weight:normal;font-stretch:normal;font-size:80px;line-height:125%;font-family:Meiryo;-inkscape-font-specification:Meiryo;letter-spacing:0px;word-spacing:0px;fill:#000000;fill-opacity:1;stroke:none;stroke-width:1px;stroke-linecap:butt;stroke-linejoin:miter;stroke-opacity:1" />
      <g
         id="flowRoot5635"
         style="font-style:normal;font-variant:normal;font-weight:normal;font-stretch:normal;font-size:70px;line-height:125%;font-family:Meiryo;-inkscape-font-specification:Meiryo;letter-spacing:0px;word-spacing:0px;fill:#000000;fill-opacity:1;stroke:none;stroke-width:1px;stroke-linecap:butt;stroke-linejoin:miter;stroke-opacity:1" />
      <g
         id="flowRoot5643"
         style="font-style:normal;font-variant:normal;font-weight:normal;font-stretch:normal;font-size:40px;line-height:125%;font-family:Meiryo;-inkscape-font-specification:Meiryo;letter-spacing:0px;word-spacing:0px;fill:#000000;fill-opacity:1;stroke:none;stroke-width:1px;stroke-linecap:butt;stroke-linejoin:miter;stroke-opacity:1"
         transform="matrix(2.563328,0,0,2.563328,-181.28468,-423.84125)">
        <path
           id="path5669"
           style=""
           d="m 155.47656,257.22005 q -0.99609,0.21485 -2.28515,0.70313 -1.26954,0.46875 -2.10938,0.8789 -0.83984,0.39063 -6.48437,3.24219 l -1.38672,-1.95312 q 1.95312,-1.05469 5.95703,-3.08594 l -0.0781,-0.39063 q -6.99218,0.11719 -20.97656,0.64453 l -0.15625,-2.73437 q 7.71484,-0.29297 21.15234,-0.29297 4.27735,0 5.6836,0.0586 l 0.68359,2.92969 z m 1.36719,24.82422 q -5.83984,0.89844 -13.14453,0.89844 l -2.30469,0 q -9.25781,0 -12.53906,-1.875 -3.26172,-1.875 -3.26172,-5.3711 0,-4.25781 4.00391,-7.7539 l 2.1289,1.58203 q -3.16406,3.10547 -3.16406,5.95703 0,2.48047 2.83203,3.57422 2.85156,1.09375 11.60156,1.09375 6.79688,0 13.35938,-0.97656 l 0.48828,2.87109 z" />
        <path
           id="path5671"
           style=""
           d="m 181.33594,283.25521 -0.76172,-2.63672 q 6.28906,-0.56641 10.74219,-3.65234 4.47265,-3.08594 4.47265,-9.21875 0,-5.46875 -3.61328,-8.45704 -3.59375,-2.98828 -10.03906,-3.16406 -0.21485,10.50781 -3.76953,17.53906 -3.55469,7.03125 -8.90625,7.03125 -3.32032,0 -5.23438,-2.8125 -1.89453,-2.83203 -1.89453,-6.89453 0,-6.69922 5.78125,-12.03125 5.78125,-5.35156 13.69141,-5.35156 7.4414,0 12.26562,3.73047 4.82422,3.71094 4.82422,10.15625 0,7.34375 -4.86328,11.23047 -4.86328,3.88672 -12.69531,4.53125 z m -2.26563,-26.875 q -5.66406,0.85937 -9.74609,5.13672 -4.08203,4.25781 -4.08203,9.6289 0,2.85157 1.1914,4.84375 1.19141,1.97266 3.32032,1.97266 3.65234,0 6.36718,-6.81641 2.71485,-6.83593 2.94922,-14.76562 z" />
        <path
           id="path5673"
           style=""
           d="m 203.44531,281.22396 0,-3.92578 0.3125,0 q 3.96485,2.61718 8.20313,2.61718 3.125,0 5,-1.69921 1.89453,-1.69922 1.89453,-4.72657 0,-2.8125 -1.64063,-4.14062 -1.64062,-1.32813 -5.3125,-1.32813 l -1.71875,0 0,-3.00781 1.32813,0 q 3.16406,0 4.96094,-1.34766 1.79687,-1.34765 1.79687,-3.78906 0,-2.07031 -1.58203,-3.18359 -1.5625,-1.13281 -4.31641,-1.13281 -3.96484,0 -7.87109,2.55859 l -0.21484,0 0,-3.84766 q 3.94531,-1.85547 8.18359,-1.85547 4.55078,0 7.03125,1.91407 2.5,1.89453 2.5,5.13672 0,2.38281 -1.66016,4.25781 -1.66015,1.875 -4.16015,2.38281 l 0,0.3125 q 6.42578,1.15234 6.42578,7.40234 0,4.04297 -2.94922,6.64063 -2.94922,2.59766 -7.59766,2.59766 -4.43359,0 -8.61328,-1.83594 z" />
        <path
           id="path5675"
           style=""
           d="m 236.76562,282.00521 -0.48828,-2.75391 q 12.89063,-0.35156 18.33985,-3.3789 5.44922,-3.04688 5.46875,-8.69141 0,-4.41406 -2.65625,-6.89453 -2.65625,-2.5 -7.22657,-2.51953 -2.92968,0 -9.66796,0.91797 -6.71875,0.91796 -12.65625,2.08984 l -0.42969,-2.89063 q 17.38281,-2.79296 22.42187,-2.79296 6.28907,0.0195 9.84375,3.14453 3.57422,3.125 3.57422,8.86718 0,6.99219 -5.83984,10.76172 -5.82031,3.75 -20.6836,4.14063 z" />
      </g>
    </g>
  </g>
</svg>
